<svg width="78" height="76" viewBox="0 0 78 76" fill="none" xmlns="http://www.w3.org/2000/svg">
<path d="M34.0389 46.0057L26.8864 53.1505L22.9612 49.2295L30.0265 42.0847L34.0389 46.0057Z" fill="#595A5A"/>
<path d="M56.7177 21.5216L33.5156 44.6987L31.335 42.6075L54.6243 19.3433L56.7177 21.5216Z" fill="#595A5A"/>
<path d="M62.7364 17.3392L58.1135 21.9572L54.1011 18.0363L58.8113 13.3312L62.7364 17.3392Z" fill="#595A5A"/>
<path d="M60.5558 2.87534C57.5029 6.36061 57.6774 11.7628 60.992 15.0738C62.7365 16.8164 65.0044 17.7749 67.3595 17.7749C69.5401 17.7749 71.6335 16.9907 73.2908 15.5966L60.5558 2.87534ZM67.3595 19.0819C64.5682 19.0819 62.0387 18.0363 60.0325 16.0323C56.0201 12.0242 56.0201 5.48929 60.0325 1.39409L60.5558 0.958435L75.2098 15.5966L74.6865 16.0323C72.7675 18.0363 70.1507 19.0819 67.3595 19.0819Z" fill="#595A5A"/>
<path d="M74.4247 16.2937L59.7708 1.74264L61.5153 0L76.082 14.551L74.4247 16.2937Z" fill="#595A5A"/>
<path d="M21.9147 54.8931C21.3042 55.6772 20.6064 56.5486 19.7341 57.4199C18.8618 58.2041 17.8151 59.0754 16.8556 59.8596C14.9367 61.6022 13.0177 63.3449 11.5349 64.5647C10.052 65.8717 9.09252 66.6559 9.09252 66.6559L8.91807 66.5687C8.91807 66.5687 9.79033 65.6103 11.0115 64.129C12.2327 62.6478 13.9772 60.7309 15.7217 58.7269C16.594 57.7684 17.379 56.81 18.2513 55.9386C19.1235 55.0673 19.9958 54.3703 20.7808 53.7603C22.2636 52.5405 23.4848 51.9306 23.4848 51.9306L23.6593 52.1048C23.6593 52.1048 23.0487 53.3247 21.9147 54.8931ZM6.21407 54.8931C5.95239 55.3287 5.69071 55.7644 5.42903 56.2C5.16735 56.7228 4.90567 57.1585 4.644 57.6813C4.12064 58.5526 3.77174 59.5982 3.42283 60.5566C2.9867 61.5151 2.89948 62.4735 2.55057 63.432C2.20167 64.3904 2.20167 65.3489 2.02722 66.2202C1.76554 67.0915 1.76554 67.9628 1.67831 68.747C1.67831 69.5312 1.50386 70.3154 1.59109 70.9253C1.59109 71.5353 1.59109 72.1452 1.59109 72.5808C1.59109 73.5393 1.59109 74.0621 1.59109 74.0621H1.50386C1.50386 74.0621 1.41664 73.5393 1.24218 72.668C1.15496 72.1452 1.06773 71.6224 0.980506 70.9253C0.89328 70.3154 0.89328 69.5312 0.89328 68.747C0.89328 67.8757 0.89328 67.0044 1.06773 66.1331C1.06773 65.6103 1.15496 65.1746 1.24218 64.6518C1.32941 64.2162 1.41664 63.6934 1.50386 63.1706C1.85277 62.2121 2.02722 61.1666 2.55057 60.2081C2.9867 59.1625 3.33561 58.2041 3.94619 57.2456C4.20787 56.81 4.46954 56.2872 4.73122 55.8515C5.08013 55.4159 5.3418 54.9802 5.69071 54.5445C6.21407 53.5861 6.9991 52.889 7.60968 52.0177C8.30749 51.3207 9.0053 50.6236 9.7031 50.0137C10.4009 49.3166 11.0115 48.7938 11.7093 48.271C12.3199 47.7482 12.9305 47.3997 13.4538 46.9641C14.0644 46.6155 14.5005 46.3541 14.9367 46.0927C15.7217 45.6571 16.2451 45.3957 16.2451 45.3957V45.4828C16.2451 45.4828 15.8089 45.7442 15.0239 46.267C14.5878 46.5284 14.1516 46.8769 13.6283 47.2255C13.1049 47.574 12.4943 48.0096 11.8838 48.5324C11.2732 49.0552 10.6626 49.6652 10.052 50.3622C9.3542 50.9721 8.74362 51.6692 8.04581 52.4534C7.52245 53.2376 6.73742 54.0217 6.21407 54.8931ZM24.4443 51.4949L16.7684 43.5659C-5.29977 56.6357 0.631602 73.9749 0.980506 75.0205C2.02722 75.3691 19.3852 81.294 32.4691 59.2497L24.4443 51.4949Z" fill="#595A5A"/>
<path d="M21.3878 21.3896L44.6424 44.6051L46.7327 42.5183L23.4781 19.3028L21.3878 21.3896Z" fill="#595A5A"/>
<path d="M15.3788 17.216L20.0819 21.9113L24.0012 17.9986L19.2981 13.3033L15.3788 17.216Z" fill="#595A5A"/>
<path d="M17.6426 2.86935C20.6909 6.34733 20.5168 11.7382 17.12 15.0423C15.4652 16.7813 13.2007 17.7377 10.762 17.7377C8.58465 17.7377 6.49436 16.9552 4.92664 15.564L17.6426 2.86935ZM10.762 19.042C13.5491 19.042 16.162 17.9986 18.0781 15.9987C22.1716 11.9991 22.1716 5.39089 18.0781 1.3912L17.6426 0.869507L3.01054 15.564L3.44601 15.9987C5.44921 17.9986 7.97498 19.042 10.762 19.042Z" fill="#595A5A"/>
<path d="M3.79439 16.2596L18.3394 1.65204L16.6845 0L2.05248 14.5206L3.79439 16.2596Z" fill="#595A5A"/>
<path d="M49.5197 54.5174C49.9552 53.7348 50.3907 53.1262 50.7391 52.5175L44.1198 45.9094L48.0391 41.9966L54.6584 48.6048C55.2681 48.257 55.8777 47.8223 56.6616 47.4745C57.968 46.7789 59.7099 46.0833 61.7131 45.9963C62.6712 45.9094 63.7163 45.9963 64.7615 46.3441C65.284 46.518 65.8066 46.8658 66.2421 47.1267C66.7647 47.5614 67.026 47.8223 67.3743 48.1701C70.0743 50.9525 72.8614 53.5609 74.8646 55.6477C76.7807 57.7345 78 59.2996 78 59.2996L77.9129 59.3866C77.9129 59.3866 76.3452 58.2562 74.1678 56.3433C71.9904 54.5174 69.1163 51.9089 66.3292 49.3874C65.5453 48.6918 65.0228 48.257 64.2389 47.9962C63.455 47.7353 62.5841 47.6484 61.8002 47.7353C60.2325 47.9092 58.7519 48.6048 57.5325 49.2135C59.0132 50.6047 61.8873 53.474 64.7615 56.5172C66.7647 58.5171 68.7679 60.6039 70.2485 62.1689C71.7291 63.821 72.6001 64.9513 72.6001 64.9513L72.3388 65.2122C72.3388 65.2122 71.2065 64.2557 69.6388 62.8645C67.984 61.3864 65.9808 59.3866 63.8905 57.3867C60.668 54.3435 57.6196 51.2133 56.3132 49.9091C55.7035 50.3438 55.181 50.6916 54.7455 50.9525C54.1358 51.4741 53.8745 51.8219 53.8745 51.8219L53.1778 51.0394L53.8745 51.735C53.8745 51.735 53.5261 52.0828 53.0907 52.6914C52.8294 52.9523 52.5681 53.3001 52.3068 53.7348C53.6132 54.9521 56.7487 58.0823 59.8841 61.2995C61.8873 63.3862 63.8905 65.473 65.3711 67.0381C66.8518 68.6902 67.7227 69.8205 67.7227 69.8205L67.5485 69.9944C67.5485 69.9944 66.3292 69.1249 64.7615 67.7337C63.1067 66.2556 61.1035 64.2557 59.0132 62.2559C55.9648 59.2996 52.9165 56.2564 51.61 54.8652C51.5229 55.0391 51.3488 55.213 51.2617 55.3869C50.652 56.6042 50.0423 58.0823 49.8681 59.7344C49.781 60.5169 49.781 61.2995 50.0423 62.082C50.3036 62.8645 50.7391 63.4732 51.4358 64.1688C53.9616 67.0381 56.5745 69.8205 58.4906 72.0812C60.4067 74.2549 61.4518 75.82 61.4518 75.82L61.3647 75.907C61.3647 75.907 59.8841 74.6897 57.7938 72.6898C55.7035 70.69 53.0036 67.9946 50.3036 65.2991C49.9552 64.9513 49.6068 64.6035 49.2585 64.0818C48.9101 63.6471 48.6488 63.2123 48.4746 62.6906C48.1262 61.6472 47.952 60.5169 48.0391 59.5605C48.2133 57.5606 48.9101 55.9086 49.5197 54.5174Z" fill="#595A5A"/>
</svg>
