<svg width="61" height="76" viewBox="0 0 61 76" fill="none" xmlns="http://www.w3.org/2000/svg">
<path d="M0 76C0 55.9903 19.346 49.8406 26.0106 67.8309C34.0637 56.7246 40.8209 67.8309 40.8209 67.8309C40.8209 62.8744 61 49.657 61 76H0Z" fill="#595A5A"/>
<path d="M42.9499 28.2705C42.2094 28.8212 41.3763 29.372 40.6358 29.9227C39.8028 30.4734 39.0622 31.2077 38.1366 31.8502C37.3961 32.4927 36.563 33.1352 35.8225 33.8695C35.082 34.6038 34.2489 35.2464 33.6009 36.0724C32.8604 36.8067 32.1199 37.4492 31.5645 38.2753C31.0091 39.1014 30.3612 39.7439 29.8983 40.57C29.343 41.3043 28.7876 41.9468 28.5099 42.6811C28.1396 43.4154 27.7694 44.0579 27.3991 44.6087C27.1214 45.1594 26.9363 45.7101 26.6586 46.1691C26.4735 46.7198 26.1958 47.0869 26.1032 47.3623H26.0106C26.1032 47.0869 26.1032 46.628 26.1958 45.9855C26.1958 45.5265 26.2883 44.884 26.3809 44.2415C26.566 43.599 26.7512 42.8647 26.9363 42.0386C27.214 41.2125 27.5842 40.3864 28.0471 39.4686C28.4173 38.5507 28.9727 37.7246 29.5281 36.8067C30.0835 35.8889 30.824 35.0628 31.4719 34.1449C32.2125 33.3188 33.0455 32.5845 33.8786 31.7584C34.7117 31.0241 35.6373 30.2898 36.4704 29.6473C37.3961 29.0048 38.3217 28.3623 39.2474 27.9034C40.0804 27.2608 41.0061 26.8019 41.9317 26.4348C42.7648 25.9758 43.5979 25.7005 44.431 25.3333C47.5782 24.1401 49.7997 23.9565 49.7997 23.9565C49.7997 23.9565 47.8559 25.0579 45.1715 26.8019C44.431 27.2608 43.6905 27.7198 42.9499 28.2705ZM59.2413 16.9807C49.7072 19.9178 25.085 19.1836 24.9924 47.3623V67.8309H27.1214V47.4541C59.519 46.2608 57.1123 19.0918 59.2413 16.9807Z" fill="#595A5A"/>
<path d="M0.647705 24.4155C5.36849 25.2416 19.1606 25.2416 22.7706 47.4541C7.40491 48.4638 0.647705 24.4155 0.647705 24.4155Z" fill="#595A5A"/>
<path d="M23.8814 27.9952C23.7888 27.3527 23.6963 26.6184 23.5111 25.9758C23.4186 25.2415 23.1409 24.5072 22.9558 23.6812C22.7706 22.9469 22.5855 22.1208 22.4004 21.2947C22.2152 20.4686 22.0301 19.6425 21.7524 18.9082C21.4747 18.0821 21.197 17.256 20.9193 16.5217C20.8268 16.0628 20.7342 15.6957 20.5491 15.3285C20.4565 14.9614 20.2714 14.5942 20.0863 14.2271C19.8086 13.4928 19.5309 12.7585 19.2532 12.1159C18.8829 11.4734 18.6052 10.9227 18.235 10.372C17.9573 9.72947 17.6796 9.27053 17.3093 8.90338C17.0316 8.44444 16.8465 8.0773 16.5688 7.80193C16.2911 7.52657 16.106 7.25121 16.0134 7.06763C15.8283 6.97585 15.7357 6.88406 15.7357 6.88406C15.7357 6.88406 16.1985 6.97585 16.8465 7.43478C17.2168 7.61836 17.587 7.98551 17.9573 8.35266C18.3275 8.71981 18.8829 9.08696 19.2532 9.63768C19.716 10.0966 20.1788 10.7391 20.6416 11.2899C21.0119 12.0242 21.3822 12.6667 21.845 13.401C22.2152 14.1353 22.6781 14.9614 22.8632 15.7874C23.2334 16.6135 23.5111 17.4396 23.7888 18.2657C24.0665 19.0918 24.2517 20.0097 24.4368 20.8357C24.6219 21.6618 24.7145 22.5797 24.807 23.314C24.9922 24.1401 25.1773 24.9662 25.0847 25.7005C25.1773 26.4348 25.1773 27.1691 25.1773 27.8116C25.1773 28.7295 25.0847 29.4638 25.0847 30.1063C34.3412 8.99517 17.3093 2.84541 11.9406 0C11.9406 0 5.27593 24.0483 24.4368 30.2899C24.2517 29.6473 24.0665 28.8213 23.8814 27.9952Z" fill="#595A5A"/>
</svg>
