<svg width="75" height="73" viewBox="0 0 75 73" fill="none" xmlns="http://www.w3.org/2000/svg">
<path d="M57.0938 39.8181H59.7188V27.1997H57.0938V39.8181Z" fill="#595A5A"/>
<path d="M54.1875 39.7247L45.5625 2.89754H20.7188L15.6563 31.2189L13.7812 30.845L19.125 1.02814H47.0625L56.0625 39.2573L54.1875 39.7247Z" fill="#595A5A"/>
<path d="M18 3.36492H47.8125V0H18V3.36492Z" fill="#595A5A"/>
<path d="M28.7812 31.6863H30.75V1.68243H28.7812V31.6863Z" fill="#595A5A"/>
<path d="M50.9063 39.7247L41.8125 2.33673L43.6875 1.86938L52.7813 39.2574L50.9063 39.7247Z" fill="#595A5A"/>
<path d="M37.4063 44.3982C37.6875 45.0525 37.875 45.7068 38.0625 46.3611C38.25 47.0154 38.3438 47.5762 38.3438 48.137C38.4375 48.6044 38.4375 49.0717 38.4375 49.4456C38.4375 50.1934 38.4375 50.6607 38.4375 50.6607C38.4375 50.6607 38.3438 50.1934 38.1563 49.4456C38.1563 49.1652 38.0625 48.6978 37.875 48.2305C37.7813 47.6697 37.5938 47.2023 37.3125 46.6415C37.125 45.9872 36.8438 45.4264 36.4688 44.7721C36.1875 44.1178 35.7188 43.557 35.3438 42.9027C34.875 42.2484 34.3125 41.6876 33.8438 41.0333C33.2813 40.4725 32.7188 39.8182 32.0625 39.3508C31.5 38.79 30.8438 38.2292 30.1875 37.7619C29.5313 37.2945 28.9688 36.7337 28.2188 36.3598C27.5625 35.9859 26.9063 35.612 26.25 35.3316C25.6875 34.9578 25.0313 34.6773 24.4688 34.3969C23.9063 34.21 23.3438 34.0231 22.875 33.8361C22.4063 33.7427 21.9375 33.5557 21.5625 33.5557C20.8125 33.3688 20.4375 33.3688 20.4375 33.3688C20.4375 33.3688 20.8125 33.2753 21.5625 33.2753C21.9375 33.2753 22.4063 33.3688 22.9688 33.3688C23.5313 33.4622 24.0938 33.5557 24.75 33.7427C25.3125 33.9296 26.0625 34.1165 26.7188 34.3969C27.375 34.6773 28.125 35.0512 28.7813 35.4251C29.5313 35.799 30.2813 36.2663 30.9375 36.7337C31.5938 37.2945 32.3438 37.7619 33 38.4161C33.6563 38.977 34.2188 39.6313 34.7813 40.2855C35.3438 40.9398 35.8125 41.5941 36.2813 42.2484C36.75 42.9962 37.125 43.6505 37.4063 44.3982ZM20.4375 64.3073C13.9688 64.3073 8.62501 59.073 8.62501 52.6236C8.62501 46.1741 13.9688 40.9398 20.4375 40.9398C26.9063 40.9398 32.1563 46.1741 32.1563 52.6236C32.1563 59.073 26.9063 64.3073 20.4375 64.3073ZM20.4375 32.2471C9.18751 32.2471 0 41.4072 0 52.6236C0 63.84 9.18751 73 20.4375 73C31.6875 73 40.875 63.84 40.875 52.6236C40.875 41.4072 31.6875 32.2471 20.4375 32.2471Z" fill="#595A5A"/>
<path d="M69.2813 54.0256C69.4688 54.3995 69.6563 54.8669 69.75 55.3342C69.9375 55.7081 70.0313 56.1755 70.125 56.5493C70.3125 57.2971 70.2188 57.9514 70.3125 58.4187C70.3125 58.7926 70.3125 59.073 70.3125 59.073C70.3125 59.073 70.2188 58.7926 70.125 58.4187C70.0313 58.2318 69.9375 57.9514 69.9375 57.671C69.8438 57.2971 69.6563 57.0167 69.5625 56.6428C69.375 56.3624 69.2813 55.895 69.0938 55.6146C68.9063 55.2408 68.7188 54.7734 68.5313 54.3995C68.25 54.0256 67.9688 53.6518 67.6875 53.2779C67.4063 52.904 67.125 52.5301 66.75 52.2497C66.375 51.8758 66 51.5954 65.625 51.315C65.25 51.0346 64.7813 50.8477 64.4063 50.5673C64.0313 50.3803 63.6563 50.0999 63.1875 50.0064C62.8125 49.8195 62.4375 49.6326 62.1563 49.5391C61.4063 49.3521 60.8438 49.1652 60.375 49.0717C59.9063 48.9783 59.7188 48.8848 59.7188 48.8848C59.7188 48.8848 60.75 48.7913 62.25 48.9783C62.625 49.0717 63.0938 49.1652 63.4688 49.2587C63.9375 49.4456 64.3125 49.6326 64.7813 49.8195C65.25 50.0064 65.7188 50.1934 66.0938 50.5673C66.5625 50.8477 67.0313 51.1281 67.4063 51.502C67.7813 51.8758 68.0625 52.3432 68.4375 52.7171C68.8125 53.0909 69 53.5583 69.2813 54.0256ZM59.7188 66.1767C56.3438 66.1767 53.5313 63.4661 53.5313 60.1012C53.5313 56.7363 56.3438 54.0256 59.7188 54.0256C63.0938 54.0256 65.8125 56.7363 65.8125 60.1012C65.8125 63.4661 63.0938 66.1767 59.7188 66.1767ZM59.7188 47.8566C52.875 47.8566 47.4375 53.3714 47.4375 60.1012C47.4375 66.831 52.875 72.3457 59.7188 72.3457C66.4688 72.3457 72 66.831 72 60.1012C72 53.3714 66.4688 47.8566 59.7188 47.8566Z" fill="#595A5A"/>
<path d="M61.5938 35.2382H36.9375C28.875 28.2279 20.9063 28.041 16.4063 28.6953C9.09376 29.7234 2.53125 34.3969 0.1875 40.2855L2.0625 41.1268C3 39.6313 4.03125 38.3227 5.25 37.1076C8.06251 34.1165 12.2813 31.8733 16.7813 31.219C17.5313 31.1255 18.375 31.032 19.4063 31.032C19.6875 31.032 20.0625 30.9386 20.4375 30.9386C32.4375 30.9386 42.1875 40.6594 42.1875 52.6236C42.1875 54.1191 42 55.6146 41.7188 57.0167L46.5 56.9232C47.9063 51.0346 53.25 46.548 59.7188 46.548C65.9063 46.548 71.2501 50.7542 72.7501 56.5493H75.0001V50.1934L61.5938 35.2382Z" fill="#595A5A"/>
</svg>
