<svg width="74" height="76" viewBox="0 0 74 76" fill="none" xmlns="http://www.w3.org/2000/svg">
<path d="M36.9054 53.2666L54.1783 34.3379H19.7268L36.9054 53.2666Z" fill="#009E2C"/>
<path d="M55.406 73.4317V35.9549L38.3218 54.6933L55.406 73.4317Z" fill="#009E2C"/>
<path d="M18.5 35.9549V73.4317L35.5842 54.6933L18.5 35.9549Z" fill="#009E2C"/>
<path d="M54.1783 75.0488L36.9054 56.1201L19.7268 75.0488H54.1783Z" fill="#009E2C"/>
<path d="M67.7704 24.9212C67.0153 23.3041 66.2602 21.7822 65.5995 20.1652C64.1837 17.1214 62.7679 13.9825 61.5408 10.8436C57.3878 9.51189 53.4235 8.18023 49.3648 6.75344L43.2296 4.56571L40.1148 3.42428C39.0765 3.0438 38.0383 2.66333 37.0944 2.18773C38.1327 2.47309 39.1709 2.75845 40.2092 3.0438L43.4184 3.89987L49.648 5.80225C53.8954 7.0388 58.0485 8.37046 62.2015 9.70213L62.4847 9.79725L62.5791 10.0826C63.9005 13.3166 65.2219 16.5507 66.449 19.7847C67.0153 21.4018 67.676 23.0188 68.2423 24.7309C68.8087 26.3479 69.4694 27.965 70.0357 29.6771C69.1862 28.0601 68.5255 26.5382 67.7704 24.9212ZM44.3622 21.4018H29.0714V15.219H44.3622V21.4018ZM64.3725 8.18023L36.9056 0L9.62755 8.18023L0 32.4355H4.15306V76H16.5179V32.4355H57.3878V76H69.8469V32.4355H74L64.3725 8.18023Z" fill="#009E2C"/>
</svg>
