<svg width="49" height="71" viewBox="0 0 49 71" fill="none" xmlns="http://www.w3.org/2000/svg">
<path d="M24.392 5.18149C21.6723 5.18149 15.1281 6.03092 15.1281 14.1005C15.1281 20.4712 19.2926 25.6527 24.392 25.6527C29.5763 25.6527 33.7408 20.4712 33.7408 14.1005C33.7408 6.03092 27.1966 5.18149 24.392 5.18149ZM24.392 26.9269C18.6127 26.9269 13.8533 21.2357 13.8533 14.1005C13.8533 7.72978 17.7628 3.90735 24.392 3.90735C31.1061 3.90735 35.0156 7.72978 35.0156 14.1005C35.0156 21.2357 30.2562 26.9269 24.392 26.9269Z" fill="#595A5A"/>
<path d="M14.7031 44.3402H34.2507V27.9462C31.446 27.0119 28.2164 26.5022 24.4769 26.5022H24.3919C20.6524 26.5022 17.4228 27.0119 14.7031 27.9462V44.3402Z" fill="#595A5A"/>
<path d="M0 70.2477H12.0685V29.1354C2.3797 34.5717 0 48.0776 0 70.2477Z" fill="#595A5A"/>
<path d="M36.8003 29.1354V70.2477H48.9538C48.9538 48.0776 46.5741 34.5717 36.8003 29.1354Z" fill="#595A5A"/>
<path d="M31.6159 3.90737C31.276 3.65254 30.936 3.48266 30.5961 3.31277C30.1711 3.14289 29.8312 2.973 29.4062 2.80312L28.3014 2.3784C27.8764 2.29346 27.5365 2.20852 27.1115 2.03863L26.5166 1.86874L25.9217 1.7838C25.4967 1.69886 25.0718 1.61391 24.6468 1.52897C25.0718 1.52897 25.4967 1.52897 25.9217 1.52897C26.3466 1.52897 26.7715 1.52897 27.1965 1.61391C27.6214 1.61391 28.0464 1.69886 28.4713 1.7838L29.7462 2.12357C30.0861 2.20851 30.5111 2.3784 30.936 2.54829C31.276 2.71817 31.7009 2.88806 32.1259 3.05794C32.8908 3.39772 33.5707 3.82243 34.3356 4.41703L34.5056 4.50197V4.67186C34.9305 7.7298 35.2705 10.7028 35.3555 13.7607C34.5056 10.8727 33.9957 7.98463 33.5707 5.01163C32.9758 4.67186 32.2959 4.24714 31.6159 3.90737ZM37.5652 12.9113L35.8654 3.48266L35.5255 3.31277C35.3555 3.14289 30.7661 0.509657 25.5817 0.0849429V0H24.9868H24.5618H24.1369H23.457V0.0849429C18.2726 0.509657 13.6832 3.14289 13.5132 3.31277L13.2582 3.48266L11.5584 12.9963C8.32884 13.5059 7.64893 14.1005 7.64893 14.865C7.64893 17.4133 20.7373 17.5832 24.7318 17.5832C28.7263 17.5832 41.8147 17.4133 41.8147 14.865C41.8147 14.1005 41.0498 13.5059 37.5652 12.9113Z" fill="#595A5A"/>
<path d="M24.5618 18.1778C24.5618 18.1778 24.5618 18.1778 24.5618 18.3476C24.6468 18.4326 24.6468 18.6025 24.7318 18.7724C24.7318 19.1971 24.7318 19.7917 24.4769 20.4712C24.3919 20.726 24.2219 21.1508 24.0519 21.4056C23.7969 21.7454 23.542 22.0851 23.287 22.34C22.947 22.6797 22.6071 22.9346 22.2671 23.1894C21.9272 23.3593 21.5022 23.6141 21.0773 23.699C20.6523 23.8689 20.2274 23.9539 19.8874 24.0388C19.4625 24.0388 19.0375 24.1238 18.6126 24.0388C18.2726 24.0388 17.8477 23.9539 17.5077 23.8689C17.1678 23.784 16.9128 23.6141 16.5728 23.5292C16.0629 23.2743 15.638 22.8496 15.298 22.5948C15.043 22.34 14.873 22.1701 14.873 22.1701V21.9152C14.873 21.9152 15.553 21.9152 16.5728 21.9152C17.0828 21.9152 17.6777 21.8303 18.3576 21.7454C18.6126 21.7454 18.9525 21.6604 19.2925 21.5755C19.6325 21.4905 19.8874 21.3206 20.2274 21.2357C20.8223 21.0658 21.5022 20.811 22.0122 20.4712C22.5221 20.1314 22.947 19.7067 23.287 19.367C23.9669 18.6025 24.3069 18.0079 24.3069 18.0079L24.5618 18.1778Z" fill="#595A5A"/>
<path d="M24.5621 18.1778C24.5621 18.1778 24.5621 18.1778 24.5621 18.3476C24.4771 18.4326 24.4771 18.6025 24.4771 18.7724C24.3921 19.1971 24.3921 19.7917 24.6471 20.4712C24.7321 20.726 24.902 21.1508 25.157 21.4056C25.327 21.7454 25.582 22.0851 25.8369 22.34C26.1769 22.6797 26.5168 22.9346 26.8568 23.1894C27.2818 23.3593 27.6217 23.6141 28.0467 23.699C28.4716 23.8689 28.8966 23.9539 29.3215 24.0388C29.6615 24.0388 30.0864 24.1238 30.5113 24.0388C30.8513 24.0388 31.2763 23.9539 31.6162 23.8689C31.9562 23.784 32.2111 23.6141 32.5511 23.5292C33.061 23.2743 33.486 22.8496 33.8259 22.5948C34.0809 22.34 34.2509 22.1701 34.2509 22.1701V21.9152C34.2509 21.9152 33.571 21.9152 32.5511 21.9152C32.0412 21.9152 31.4462 21.8303 30.8513 21.7454C30.5113 21.7454 30.1714 21.6604 29.8314 21.5755C29.5765 21.4905 29.2365 21.3206 28.8966 21.2357C28.3016 21.0658 27.7067 20.811 27.1118 20.4712C26.6018 20.1314 26.1769 19.7067 25.8369 19.367C25.157 18.6025 24.8171 18.0079 24.8171 18.0079L24.5621 18.1778Z" fill="#595A5A"/>
</svg>
