<svg width="171" height="51" viewBox="0 0 171 51" fill="none" xmlns="http://www.w3.org/2000/svg">
<path d="M164.926 51H6.25911C2.96229 51 0.278809 48.2931 0.278809 44.9794V6.12975C0.278809 2.81479 2.96229 0.118042 6.25911 0.118042H164.926C168.222 0.118042 171 2.81479 171 6.12975V44.9794C171 48.2931 168.222 51 164.926 51Z" fill="#A6A6A6"/>
<path d="M169.776 44.9807C169.776 47.6723 167.608 49.8526 164.927 49.8526H6.25886C3.57917 49.8526 1.40405 47.6723 1.40405 44.9807V6.12846C1.40405 3.43808 3.57917 1.25015 6.25886 1.25015H164.926C167.608 1.25015 169.774 3.43808 169.774 6.12846L169.776 44.9807Z" fill="black"/>
<path d="M38.3786 25.2842C38.3419 21.1844 41.7159 19.1898 41.8702 19.0969C39.9593 16.2946 36.9976 15.9117 35.9569 15.8812C33.4694 15.6179 31.0565 17.3784 29.7894 17.3784C28.497 17.3784 26.5457 15.9066 24.4427 15.9499C21.7364 15.9919 19.2047 17.5679 17.8162 20.0154C14.9506 25.0056 17.0877 32.339 19.8332 36.3727C21.2066 38.3481 22.8113 40.5539 24.9118 40.4763C26.9668 40.3911 27.7344 39.1584 30.2143 39.1584C32.6714 39.1584 33.3923 40.4763 35.5345 40.4267C37.74 40.3911 39.1285 38.4423 40.4538 36.449C42.0409 34.1847 42.6782 31.9548 42.7035 31.8403C42.6517 31.8225 38.4203 30.1981 38.3786 25.2842Z" fill="white"/>
<path d="M34.3318 13.2277C35.4371 11.8374 36.1933 9.94586 35.9834 8.02634C34.3837 8.09757 32.3831 9.13938 31.231 10.4992C30.2117 11.6975 29.3012 13.6615 29.5364 15.5085C31.3334 15.6434 33.1785 14.5965 34.3318 13.2277Z" fill="white"/>
<path d="M68.1182 40.1926H65.2463L63.6731 35.2202H58.205L56.7064 40.1926H53.9104L59.328 23.2642H62.6741L68.1182 40.1926ZM63.1989 33.134L61.7762 28.7136C61.6257 28.2621 61.3437 27.1986 60.9277 25.5246H60.8771C60.7114 26.2446 60.4446 27.308 60.0779 28.7136L58.6805 33.134H63.1989Z" fill="white"/>
<path d="M82.0502 33.9392C82.0502 36.0152 81.4925 37.6562 80.3771 38.8608C79.3781 39.9331 78.1375 40.4687 76.6567 40.4687C75.0582 40.4687 73.91 39.8912 73.2106 38.7361H73.16V45.1664H70.4639V32.0045C70.4639 30.6993 70.4298 29.3599 70.364 27.9861H72.7351L72.8856 29.9208H72.9362C73.8353 28.4631 75.1999 27.7355 77.031 27.7355C78.4625 27.7355 79.6576 28.3041 80.6136 29.4425C81.5722 30.5823 82.0502 32.0808 82.0502 33.9392ZM79.3035 34.0385C79.3035 32.8504 79.0379 31.8709 78.5043 31.1C77.9213 30.2961 77.1385 29.8941 76.1572 29.8941C75.492 29.8941 74.8875 30.118 74.3475 30.5594C73.8063 31.0046 73.4522 31.586 73.2865 32.3059C73.203 32.6418 73.1613 32.9165 73.1613 33.1328V35.168C73.1613 36.0559 73.4319 36.8052 73.9732 37.417C74.5144 38.0289 75.2176 38.3342 76.0825 38.3342C77.098 38.3342 77.8884 37.9398 78.4537 37.1537C79.0202 36.3663 79.3035 35.3283 79.3035 34.0385Z" fill="white"/>
<path d="M96.0077 33.9392C96.0077 36.0152 95.45 37.6562 94.3333 38.8608C93.3356 39.9331 92.095 40.4687 90.6141 40.4687C89.0157 40.4687 87.8674 39.8912 87.1694 38.7361H87.1188V45.1664H84.4227V32.0045C84.4227 30.6993 84.3885 29.3599 84.3228 27.9861H86.6939L86.8444 29.9208H86.895C87.7928 28.4631 89.1573 27.7355 90.9897 27.7355C92.42 27.7355 93.6151 28.3041 94.5736 29.4425C95.5284 30.5823 96.0077 32.0808 96.0077 33.9392ZM93.261 34.0385C93.261 32.8504 92.9941 31.8709 92.4605 31.1C91.8775 30.2961 91.0972 29.8941 90.1146 29.8941C89.4482 29.8941 88.845 30.118 88.3037 30.5594C87.7625 31.0046 87.4096 31.586 87.244 32.3059C87.1618 32.6418 87.1188 32.9165 87.1188 33.1328V35.168C87.1188 36.0559 87.3894 36.8052 87.9281 37.417C88.4694 38.0276 89.1725 38.3342 90.04 38.3342C91.0555 38.3342 91.8459 37.9398 92.4112 37.1537C92.9777 36.3663 93.261 35.3283 93.261 34.0385Z" fill="white"/>
<path d="M111.613 35.4453C111.613 36.8853 111.116 38.0568 110.118 38.9613C109.022 39.9496 107.495 40.4432 105.534 40.4432C103.723 40.4432 102.271 40.0921 101.172 39.3887L101.797 37.1282C102.981 37.8482 104.279 38.2095 105.695 38.2095C106.71 38.2095 107.5 37.978 108.068 37.5175C108.634 37.057 108.916 36.4388 108.916 35.6679C108.916 34.981 108.683 34.4022 108.216 33.9329C107.752 33.4635 106.977 33.0272 105.894 32.6239C102.948 31.5185 101.476 29.8992 101.476 27.7698C101.476 26.3782 101.992 25.2371 103.025 24.3492C104.054 23.4601 105.428 23.0161 107.145 23.0161C108.677 23.0161 109.949 23.2845 110.964 23.8201L110.29 26.0309C109.342 25.5119 108.269 25.2524 107.069 25.2524C106.121 25.2524 105.38 25.4877 104.849 25.9558C104.4 26.3743 104.175 26.8844 104.175 27.4887C104.175 28.1578 104.431 28.7111 104.947 29.1461C105.396 29.5481 106.212 29.9831 107.395 30.4525C108.843 31.0389 109.907 31.7246 110.591 32.5107C111.273 33.2943 111.613 34.275 111.613 35.4453Z" fill="white"/>
<path d="M120.527 30.0213H117.555V35.9478C117.555 37.4551 118.079 38.2082 119.128 38.2082C119.61 38.2082 120.01 38.1662 120.326 38.0823L120.401 40.1417C119.869 40.3414 119.17 40.4419 118.304 40.4419C117.239 40.4419 116.407 40.115 115.806 39.4624C115.208 38.8086 114.907 37.7121 114.907 36.1717V30.0187H113.137V27.9835H114.907V25.7485L117.555 24.9445V27.9835H120.527V30.0213Z" fill="white"/>
<path d="M133.936 33.9888C133.936 35.8651 133.402 37.4056 132.337 38.6102C131.221 39.8504 129.739 40.4686 127.891 40.4686C126.11 40.4686 124.693 39.8746 123.636 38.6865C122.578 37.4984 122.05 35.9987 122.05 34.1911C122.05 32.2995 122.594 30.7502 123.685 29.5456C124.774 28.3397 126.243 27.7367 128.091 27.7367C129.871 27.7367 131.304 28.3307 132.385 29.5201C133.42 30.6739 133.936 32.1634 133.936 33.9888ZM131.138 34.0766C131.138 32.9508 130.899 31.9853 130.415 31.1801C129.85 30.2058 129.042 29.7198 127.995 29.7198C126.911 29.7198 126.088 30.207 125.522 31.1801C125.038 31.9866 124.799 32.9674 124.799 34.1275C124.799 35.2532 125.038 36.2187 125.522 37.0227C126.105 37.9971 126.92 38.483 127.971 38.483C129 38.483 129.808 37.9869 130.391 36.9972C130.888 36.1768 131.138 35.2011 131.138 34.0766Z" fill="white"/>
<path d="M142.699 30.3711C142.432 30.3215 142.148 30.2961 141.849 30.2961C140.901 30.2961 140.168 30.6561 139.652 31.3773C139.203 32.0134 138.978 32.8173 138.978 33.7879V40.1926H136.283L136.308 31.8302C136.308 30.4233 136.274 29.1423 136.207 27.9873H138.555L138.654 30.3228H138.728C139.013 29.5201 139.462 28.8739 140.076 28.3893C140.677 27.953 141.326 27.7355 142.025 27.7355C142.274 27.7355 142.499 27.7533 142.699 27.7851V30.3711Z" fill="white"/>
<path d="M154.757 33.5118C154.757 33.9978 154.726 34.4074 154.659 34.7419H146.57C146.602 35.9478 146.993 36.87 147.744 37.5061C148.426 38.0747 149.307 38.3596 150.389 38.3596C151.587 38.3596 152.68 38.1675 153.662 37.7821L154.085 39.6647C152.936 40.1685 151.581 40.4191 150.016 40.4191C148.135 40.4191 146.658 39.8619 145.583 38.7489C144.51 37.6358 143.973 36.1412 143.973 34.2662C143.973 32.4255 144.472 30.8927 145.473 29.6702C146.52 28.3651 147.935 27.7126 149.715 27.7126C151.464 27.7126 152.788 28.3651 153.688 29.6702C154.4 30.707 154.757 31.9892 154.757 33.5118ZM152.186 32.8084C152.204 32.0044 152.028 31.3099 151.663 30.7235C151.196 29.9692 150.479 29.5926 149.514 29.5926C148.633 29.5926 147.916 29.9603 147.368 30.6981C146.919 31.2845 146.653 31.9879 146.57 32.8071H152.186V32.8084Z" fill="white"/>
<path d="M62.3074 12.85C62.3074 14.3472 61.861 15.4742 60.9695 16.2311C60.1437 16.9295 58.9702 17.2793 57.4501 17.2793C56.6964 17.2793 56.0515 17.2462 55.5115 17.1801V8.99951C56.2159 8.88502 56.9746 8.82651 57.7941 8.82651C59.2421 8.82651 60.3334 9.14325 61.0694 9.77673C61.8939 10.4929 62.3074 11.5169 62.3074 12.85ZM60.9101 12.8869C60.9101 11.9163 60.6546 11.1722 60.1437 10.6532C59.6328 10.1354 58.8867 9.87595 57.9041 9.87595C57.4868 9.87595 57.1314 9.90393 56.8368 9.96245V16.1815C56.9999 16.2069 57.2984 16.2184 57.7321 16.2184C58.7463 16.2184 59.5291 15.9347 60.0805 15.3674C60.6319 14.8001 60.9101 13.9732 60.9101 12.8869Z" fill="white"/>
<path d="M69.7166 14.1577C69.7166 15.08 69.4548 15.8356 68.9313 16.4283C68.3824 17.0376 67.6553 17.3417 66.7473 17.3417C65.8722 17.3417 65.1754 17.0504 64.6557 16.4652C64.1372 15.8813 63.8779 15.1448 63.8779 14.2569C63.8779 13.3283 64.1448 12.5664 64.681 11.9749C65.2171 11.3834 65.938 11.087 66.846 11.087C67.7211 11.087 68.4242 11.3783 68.9566 11.9622C69.4624 12.5295 69.7166 13.2622 69.7166 14.1577ZM68.342 14.201C68.342 13.6476 68.2231 13.1732 67.9866 12.7775C67.7084 12.2993 67.3126 12.0601 66.7979 12.0601C66.2655 12.0601 65.8608 12.2993 65.5826 12.7775C65.3449 13.1732 65.2273 13.6553 65.2273 14.2251C65.2273 14.7785 65.3461 15.253 65.5826 15.6486C65.8697 16.1269 66.2693 16.366 66.7853 16.366C67.2911 16.366 67.6882 16.123 67.974 15.6358C68.2193 15.2326 68.342 14.7543 68.342 14.201Z" fill="white"/>
<path d="M79.6516 11.2091L77.7863 17.2056H76.5723L75.7997 14.6017C75.6036 13.9517 75.4443 13.3055 75.3204 12.6643H75.2963C75.1813 13.3233 75.0219 13.9682 74.8171 14.6017L73.9963 17.2056H72.7684L71.0144 11.2091H72.3764L73.0504 14.0598C73.2135 14.734 73.3476 15.3763 73.4551 15.9844H73.4791C73.5778 15.4832 73.7409 14.8446 73.971 14.0725L74.8171 11.2104H75.897L76.7076 14.0114C76.9037 14.6945 77.063 15.3522 77.1857 15.9857H77.2223C77.3121 15.3687 77.4474 14.7111 77.627 14.0114L78.3504 11.2104H79.6516V11.2091Z" fill="white"/>
<path d="M86.522 17.2056H85.1967V13.771C85.1967 12.7127 84.797 12.1835 83.9953 12.1835C83.602 12.1835 83.2846 12.3285 83.038 12.6198C82.7939 12.9111 82.67 13.2546 82.67 13.6476V17.2043H81.3447V12.9226C81.3447 12.3959 81.3282 11.8248 81.2966 11.2066H82.4613L82.5233 12.1441H82.56C82.7143 11.8528 82.9444 11.6124 83.2466 11.4203C83.6058 11.1964 84.0079 11.0832 84.448 11.0832C85.0044 11.0832 85.4673 11.2638 85.8353 11.6263C86.2931 12.0703 86.522 12.733 86.522 13.6133V17.2056Z" fill="white"/>
<path d="M90.1768 17.2055H88.8528V8.45764H90.1768V17.2055Z" fill="white"/>
<path d="M97.9795 14.1577C97.9795 15.08 97.7178 15.8356 97.1942 16.4283C96.6454 17.0376 95.917 17.3417 95.0103 17.3417C94.1339 17.3417 93.4371 17.0504 92.9186 16.4652C92.4001 15.8813 92.1409 15.1448 92.1409 14.2569C92.1409 13.3283 92.4077 12.5664 92.9439 11.9749C93.4801 11.3834 94.2009 11.087 95.1076 11.087C95.984 11.087 96.6858 11.3783 97.2195 11.9622C97.7254 12.5295 97.9795 13.2622 97.9795 14.1577ZM96.6036 14.201C96.6036 13.6476 96.4848 13.1732 96.2483 12.7775C95.9714 12.2993 95.5743 12.0601 95.0608 12.0601C94.5272 12.0601 94.1225 12.2993 93.8456 12.7775C93.6078 13.1732 93.4902 13.6553 93.4902 14.2251C93.4902 14.7785 93.6091 15.253 93.8456 15.6486C94.1326 16.1269 94.5322 16.366 95.0482 16.366C95.554 16.366 95.9499 16.123 96.2357 15.6358C96.4822 15.2326 96.6036 14.7543 96.6036 14.201Z" fill="white"/>
<path d="M104.393 17.2055H103.203L103.105 16.5148H103.068C102.661 17.0656 102.08 17.3417 101.327 17.3417C100.764 17.3417 100.309 17.1598 99.9659 16.7985C99.6548 16.4703 99.4993 16.062 99.4993 15.5773C99.4993 14.8446 99.8028 14.2862 100.414 13.8995C101.023 13.5128 101.881 13.3233 102.985 13.3322V13.2202C102.985 12.4303 102.572 12.0359 101.746 12.0359C101.158 12.0359 100.64 12.1848 100.192 12.4799L99.9229 11.6047C100.477 11.26 101.161 11.087 101.968 11.087C103.526 11.087 104.307 11.9138 104.307 13.5675V15.7758C104.307 16.3749 104.336 16.8519 104.393 17.2055ZM103.017 15.1448V14.22C101.556 14.1946 100.825 14.5978 100.825 15.4285C100.825 15.7414 100.908 15.9755 101.079 16.1319C101.249 16.2884 101.467 16.366 101.726 16.366C102.017 16.366 102.289 16.2731 102.537 16.0887C102.786 15.903 102.939 15.6676 102.996 15.3789C103.01 15.314 103.017 15.2351 103.017 15.1448Z" fill="white"/>
<path d="M111.924 17.2055H110.748L110.686 16.2426H110.649C110.274 16.9753 109.634 17.3416 108.735 17.3416C108.016 17.3416 107.418 17.058 106.944 16.4906C106.47 15.9233 106.233 15.1868 106.233 14.2824C106.233 13.3118 106.49 12.5257 107.006 11.9252C107.506 11.3655 108.118 11.0857 108.846 11.0857C109.647 11.0857 110.207 11.3566 110.525 11.8998H110.551V8.45764H111.877V15.59C111.877 16.1739 111.892 16.712 111.924 17.2055ZM110.551 14.6767V13.6769C110.551 13.5039 110.538 13.3639 110.514 13.2571C110.439 12.9365 110.279 12.6669 110.035 12.4493C109.788 12.2318 109.491 12.1224 109.148 12.1224C108.654 12.1224 108.267 12.3196 107.982 12.7152C107.7 13.1108 107.557 13.6158 107.557 14.2327C107.557 14.8255 107.693 15.3064 107.965 15.6765C108.252 16.0709 108.639 16.268 109.123 16.268C109.558 16.268 109.906 16.1039 110.17 15.7745C110.426 15.4705 110.551 15.1041 110.551 14.6767Z" fill="white"/>
<path d="M123.259 14.1577C123.259 15.08 122.997 15.8356 122.474 16.4283C121.925 17.0376 121.199 17.3417 120.29 17.3417C119.416 17.3417 118.719 17.0504 118.198 16.4652C117.679 15.8813 117.42 15.1448 117.42 14.2569C117.42 13.3283 117.687 12.5664 118.223 11.9749C118.759 11.3834 119.48 11.087 120.389 11.087C121.263 11.087 121.968 11.3783 122.499 11.9622C123.005 12.5295 123.259 13.2622 123.259 14.1577ZM121.885 14.201C121.885 13.6476 121.767 13.1732 121.53 12.7775C121.251 12.2993 120.856 12.0601 120.34 12.0601C119.809 12.0601 119.404 12.2993 119.125 12.7775C118.887 13.1732 118.769 13.6553 118.769 14.2251C118.769 14.7785 118.888 15.253 119.125 15.6486C119.412 16.1269 119.812 16.366 120.327 16.366C120.833 16.366 121.232 16.123 121.517 15.6358C121.762 15.2326 121.885 14.7543 121.885 14.201Z" fill="white"/>
<path d="M130.385 17.2056H129.061V13.771C129.061 12.7127 128.661 12.1835 127.858 12.1835C127.465 12.1835 127.147 12.3285 126.902 12.6198C126.657 12.9111 126.534 13.2546 126.534 13.6476V17.2043H125.207V12.9226C125.207 12.3959 125.192 11.8248 125.161 11.2066H126.324L126.386 12.1441H126.423C126.578 11.8528 126.808 11.6124 127.109 11.4203C127.47 11.1964 127.871 11.0832 128.312 11.0832C128.867 11.0832 129.33 11.2638 129.698 11.6263C130.157 12.0703 130.385 12.733 130.385 13.6133V17.2056Z" fill="white"/>
<path d="M139.304 12.2077H137.845V15.1207C137.845 15.861 138.104 16.2312 138.617 16.2312C138.855 16.2312 139.052 16.2108 139.208 16.1688L139.242 17.1801C138.98 17.2793 138.636 17.3289 138.213 17.3289C137.689 17.3289 137.282 17.1687 136.987 16.8481C136.691 16.5275 136.545 15.9882 136.545 15.2313V12.2077H135.673V11.2091H136.545V10.11L137.843 9.71571V11.2078H139.303V12.2077H139.304Z" fill="white"/>
<path d="M146.32 17.2055H144.994V13.7964C144.994 12.7216 144.594 12.1835 143.793 12.1835C143.179 12.1835 142.759 12.4951 142.529 13.1184C142.49 13.2495 142.467 13.4097 142.467 13.598V17.2043H141.143V8.45764H142.467V12.0715H142.492C142.909 11.4139 143.508 11.0857 144.283 11.0857C144.832 11.0857 145.286 11.2663 145.646 11.6289C146.095 12.0804 146.32 12.7521 146.32 13.64V17.2055Z" fill="white"/>
<path d="M153.558 13.9236C153.558 14.1628 153.54 14.3637 153.508 14.5278H149.534C149.551 15.1206 149.741 15.5722 150.109 15.8851C150.445 16.165 150.879 16.3049 151.41 16.3049C151.998 16.3049 152.534 16.2108 153.018 16.0212L153.225 16.9473C152.66 17.1941 151.994 17.3174 151.224 17.3174C150.301 17.3174 149.574 17.044 149.048 16.497C148.519 15.95 148.258 15.216 148.258 14.2951C148.258 13.3906 148.502 12.6376 148.994 12.0372C149.507 11.396 150.201 11.0755 151.078 11.0755C151.935 11.0755 152.586 11.396 153.026 12.0372C153.382 12.546 153.558 13.1756 153.558 13.9236ZM152.293 13.5789C152.303 13.1833 152.216 12.8424 152.036 12.5549C151.806 12.1847 151.456 11.999 150.982 11.999C150.549 11.999 150.196 12.1796 149.927 12.5422C149.707 12.8309 149.577 13.1756 149.534 13.5789H152.293Z" fill="white"/>
</svg>
