<svg width="144" height="182" viewBox="0 0 144 182" fill="none" xmlns="http://www.w3.org/2000/svg">
<path d="M29.563 57.2266C29.563 57.2266 30.26 54.7851 29.2145 53.0412C28.0527 51.1811 26.891 46.2982 30.7247 46.2982L30.957 58.1567L29.563 57.2266Z" fill="#9A9A9A"/>
<path d="M32.2351 57.1103C32.2351 57.1103 31.5381 54.7851 32.4674 52.925C33.513 51.0648 34.4424 46.1819 30.7249 46.2982L30.9572 58.1567L32.2351 57.1103Z" fill="#747474"/>
<path d="M26.5426 56.2964C26.3102 56.2964 26.0779 56.4127 26.0779 56.6452C26.0779 56.6452 26.0779 56.6452 26.0779 56.7615C26.1941 59.4354 28.4013 61.4119 30.9571 61.4119C33.6291 61.4119 35.7202 59.2029 35.7202 56.5289C35.7202 56.4127 35.7202 56.4127 35.7202 56.4127C35.604 56.1802 35.4879 56.0639 35.2555 56.0639L26.5426 56.2964Z" fill="#964514"/>
<path d="M35.2559 56.0639L30.8413 56.1802L30.9575 61.4119C33.6294 61.4119 35.7206 59.2029 35.7206 56.5289C35.7206 56.4127 35.7206 56.4127 35.7206 56.4127C35.6044 56.1802 35.4882 56.0639 35.2559 56.0639Z" fill="#853A0C"/>
<path d="M24.2192 50.3673C24.2192 50.3673 25.8457 48.5071 25.7295 46.4144C25.4971 44.3217 26.6589 39.4388 30.0279 41.0665L25.0324 51.8786L24.2192 50.3673Z" fill="#9A9A9A"/>
<path d="M26.6589 51.5298C26.6589 51.5298 27.0074 49.0883 28.75 47.8095C30.3764 46.6469 33.3969 42.5778 30.0279 41.0664L25.0325 51.8786L26.6589 51.5298Z" fill="#747474"/>
<path d="M21.8956 48.1584C21.7794 48.0421 21.5471 48.1584 21.4309 48.2746L21.3148 48.3909C20.2692 50.8323 21.3148 53.6226 23.6382 54.7852C26.0778 55.8315 28.866 54.7852 30.0277 52.46V52.3437C30.1439 52.1112 30.0277 51.9949 29.7953 51.8787L21.8956 48.1584Z" fill="#693514"/>
<path d="M29.7953 51.8786L25.8455 50.0185L23.6382 54.7851C26.0778 55.8315 28.8659 54.7851 30.0277 52.4599V52.3437C30.1438 52.1112 30.0277 51.9949 29.7953 51.8786Z" fill="#4F250A"/>
<path d="M24.8 38.9738C24.8 38.9738 26.4265 37.1136 26.3103 35.021C26.1941 32.9283 27.2397 28.0454 30.6087 29.673L25.6133 40.4852L24.8 38.9738Z" fill="#9A9A9A"/>
<path d="M27.3559 40.1364C27.3559 40.1364 27.5882 37.6949 29.3308 36.4161C31.0734 35.2535 34.0939 31.1844 30.6087 29.673L25.6133 40.4852L27.3559 40.1364Z" fill="#747474"/>
<path d="M22.5926 36.8811C22.3603 36.7648 22.1279 36.7648 22.0118 36.8811V36.9973C20.85 39.4388 21.8956 42.229 24.219 43.3916C26.6587 44.438 29.4468 43.5079 30.6085 41.0664L30.7247 40.9502C30.7247 40.8339 30.6085 40.6014 30.3762 40.4851L22.5926 36.8811Z" fill="#964514"/>
<path d="M30.3764 40.4851L26.4265 38.6249L24.2192 43.3916C26.6589 44.4379 29.447 43.5078 30.6087 41.0664L30.7249 40.9501C30.7249 40.8339 30.6087 40.6014 30.3764 40.4851Z" fill="#853A0C"/>
<path d="M33.9774 47.3445C33.9774 47.3445 33.7451 44.903 32.0025 43.7404C30.2599 42.4615 27.2394 38.5087 30.6084 36.8811L35.72 47.6932L33.9774 47.3445Z" fill="#9A9A9A"/>
<path d="M36.5334 46.1819C36.5334 46.1819 34.907 44.3217 35.0232 42.229C35.1394 40.1364 34.0938 35.2534 30.6086 36.8811L35.7202 47.6932L36.5334 46.1819Z" fill="#747474"/>
<path d="M30.9572 47.6933C30.7248 47.8096 30.6086 48.0421 30.6086 48.1584L30.7248 48.2746C31.8865 50.7161 34.6747 51.7624 37.1143 50.5998C39.4378 49.5535 40.4833 46.647 39.3216 44.3218V44.0893C39.2054 43.973 38.9731 43.973 38.7407 44.0893L30.9572 47.6933Z" fill="#964514"/>
<path d="M38.7409 44.0893L34.9072 45.9494L37.1145 50.5998C39.438 49.5535 40.4835 46.647 39.3218 44.3218V44.0893C39.2056 43.973 38.9733 43.973 38.7409 44.0893Z" fill="#853A0C"/>
<path d="M31.1894 34.4396C31.1894 34.4396 30.8409 31.9982 29.0983 30.7193C27.4719 29.5567 24.3352 25.4876 27.8204 23.9762L32.8158 34.7884L31.1894 34.4396Z" fill="#9A9A9A"/>
<path d="M33.6292 33.277C33.6292 33.277 32.0028 31.4169 32.1189 29.3242C32.2351 27.2315 31.1896 22.3486 27.8206 23.9762L32.816 34.7884L33.6292 33.277Z" fill="#747474"/>
<path d="M28.0528 34.7884C27.8205 34.9047 27.7043 35.0209 27.8205 35.2535V35.3697C28.9822 37.6949 31.7703 38.7413 34.21 37.6949C36.5334 36.5323 37.579 33.7421 36.5334 31.3006L36.4172 31.1844C36.3011 31.0681 36.0687 31.0681 35.8364 31.0681L28.0528 34.7884Z" fill="#693514"/>
<path d="M35.8364 31.0681L32.0027 32.9283L34.21 37.6949C36.5334 36.5323 37.579 33.7421 36.5334 31.3006L36.4172 31.1844C36.3011 31.0681 36.0687 31.0681 35.8364 31.0681Z" fill="#4F250A"/>
<path d="M111.581 49.5534C111.581 49.5534 112.278 47.2282 111.233 45.368C110.187 43.6241 109.025 38.7412 112.743 38.6249L112.975 50.5997L111.581 49.5534Z" fill="#9A9A9A"/>
<path d="M114.369 49.5535C114.369 49.5535 113.556 47.2283 114.601 45.3681C115.531 43.508 116.576 38.5088 112.743 38.625L112.975 50.5998L114.369 49.5535Z" fill="#747474"/>
<path d="M108.677 48.6233C108.444 48.6233 108.212 48.8559 108.212 48.9721C108.212 48.9721 108.212 48.9721 108.212 49.0884C108.328 51.7624 110.419 53.855 113.091 53.7388C115.763 53.7388 117.854 51.5298 117.738 48.8559C117.738 48.7396 117.738 48.7396 117.738 48.7396C117.738 48.6233 117.506 48.5071 117.273 48.5071L108.677 48.6233Z" fill="#964514"/>
<path d="M117.273 48.5071L112.975 48.6233L113.091 53.7388C115.763 53.7388 117.854 51.5298 117.738 48.8559C117.738 48.7396 117.738 48.7396 117.738 48.7396C117.738 48.6233 117.506 48.5071 117.273 48.5071Z" fill="#853A0C"/>
<path d="M106.353 42.694C106.353 42.694 107.979 40.8338 107.747 38.7411C107.631 36.6485 108.793 31.7656 112.162 33.3932L107.05 44.2054L106.353 42.694Z" fill="#9A9A9A"/>
<path d="M108.793 43.8567C108.793 43.8567 109.141 41.4152 110.768 40.2526C112.51 38.9738 115.531 35.0209 112.162 33.3933L107.05 44.2055L108.793 43.8567Z" fill="#747474"/>
<path d="M104.03 40.6014C103.797 40.4852 103.565 40.4852 103.449 40.6014V40.8339C102.287 43.1591 103.333 45.9494 105.772 47.112C108.096 48.2746 111 47.2282 112.046 44.7868L112.162 44.6705C112.162 44.5542 112.046 44.3217 111.813 44.2055L104.03 40.6014Z" fill="#693514"/>
<path d="M111.813 44.2054L107.979 42.3453L105.772 47.1119C108.096 48.2745 111 47.2282 112.046 44.7867L112.162 44.6705C112.162 44.5542 112.046 44.3217 111.813 44.2054Z" fill="#4F250A"/>
<path d="M106.934 32.1144C106.934 32.1144 108.56 30.2543 108.444 28.1616C108.212 26.0689 109.374 21.186 112.743 22.8137L107.747 33.6258L106.934 32.1144Z" fill="#9A9A9A"/>
<path d="M109.374 33.2771C109.374 33.2771 109.722 30.8356 111.465 29.5568C113.091 28.3942 116.112 24.3251 112.743 22.8137L107.747 33.6258L109.374 33.2771Z" fill="#747474"/>
<path d="M104.61 30.0218C104.494 29.9055 104.146 29.9055 104.146 30.0218L104.03 30.138C102.984 32.5795 104.03 35.3697 106.353 36.5323C108.793 37.5786 111.581 36.6486 112.743 34.2071V34.0909C112.859 33.9746 112.743 33.7421 112.51 33.6258L104.61 30.0218Z" fill="#964514"/>
<path d="M112.51 33.6258L108.56 31.7656L106.353 36.5323C108.793 37.5786 111.581 36.6485 112.743 34.2071V34.0908C112.859 33.9746 112.743 33.742 112.51 33.6258Z" fill="#853A0C"/>
<path d="M116.112 38.9738C116.112 38.9738 115.763 36.5324 114.137 35.2535C112.394 34.0909 109.374 30.0218 112.743 28.5104L117.738 39.3226L116.112 38.9738Z" fill="#9A9A9A"/>
<path d="M118.551 37.8113C118.551 37.8113 116.925 35.9511 117.157 33.8585C117.273 31.7658 116.112 26.8829 112.743 28.5105L117.738 39.3227L118.551 37.8113Z" fill="#747474"/>
<path d="M113.091 39.3226C112.859 39.4389 112.743 39.6714 112.743 39.7876L112.859 39.9039C113.904 42.3453 116.809 43.2754 119.132 42.2291C121.572 41.0665 122.617 38.2763 121.456 35.8348V35.7185C121.339 35.6023 121.107 35.6023 120.875 35.7185L113.091 39.3226Z" fill="#964514"/>
<path d="M120.875 35.7185L116.925 37.4624L119.132 42.2291C121.572 41.0665 122.617 38.2763 121.456 35.8348V35.7185C121.339 35.6023 121.107 35.6023 120.875 35.7185Z" fill="#853A0C"/>
<path d="M71.966 34.7885C71.966 34.7885 70.5719 32.2308 67.7838 33.0446C64.8795 33.9747 64.5309 35.7186 63.1369 36.5324C61.859 37.4625 60.3487 37.8112 59.5355 40.6015C58.7223 43.508 58.1415 44.3218 57.5606 45.3681C54.6563 50.1348 55.7018 54.4364 57.9091 57.2266C60.5811 60.8307 58.49 60.0169 59.4194 63.1559C59.7679 64.551 64.0663 66.9924 62.6722 68.7363C62.6722 68.7363 66.9706 66.5274 68.1323 65.2485C69.5264 63.5046 71.966 34.7885 71.966 34.7885Z" fill="#693514"/>
<path d="M71.7336 34.7885C71.7336 34.7885 73.1277 32.2308 75.9159 33.0446C78.8202 33.9747 79.1687 35.7186 80.5628 36.5324C81.8407 37.4625 83.3509 37.8112 84.1641 40.6015C84.9773 43.508 85.5582 44.3218 86.139 45.3681C89.0434 50.1348 87.9978 54.4364 85.7905 57.2266C83.2347 60.8307 85.2097 60.0169 84.3964 63.1559C83.9318 64.551 79.6334 66.9924 81.0274 68.7363C81.0274 68.7363 76.7291 66.5274 75.5673 65.2485C74.1733 63.5046 71.7336 34.7885 71.7336 34.7885Z" fill="#4F250A"/>
<path d="M65.925 58.6217C65.925 58.6217 67.0867 67.69 62.9045 68.3875C58.49 69.0851 51.752 67.3412 48.0344 73.8517C43.8522 81.0598 37.9274 93.7322 37.2304 105.242C37.1142 106.288 36.301 108.73 36.301 109.66C36.5334 121.983 38.1598 121.053 36.9981 124.89C35.7202 128.726 35.604 132.563 40.5994 133.493C45.1301 134.423 45.4787 133.726 44.6654 127.447C44.0846 123.03 46.2919 112.799 45.3625 107.683C44.4331 102.568 51.9843 94.7785 53.2622 89.8956V114.078H71.8498V89.8956V51.4136L65.925 58.6217Z" fill="#FFBA80"/>
<path d="M107.515 109.66C107.515 108.73 106.702 106.288 106.585 105.242C105.888 93.7322 99.9636 81.0598 95.7814 73.8517C92.0639 67.3412 85.2097 69.0851 80.9113 68.3875C76.7291 67.69 77.7747 58.6217 77.7747 58.6217L71.8499 51.4136V89.8956V114.078H90.4375V89.8956H90.5536C91.8315 94.7785 99.3827 102.568 98.4534 107.683C97.524 112.799 99.7313 123.03 99.1504 127.447C98.3372 133.726 98.6857 134.423 103.216 133.493C108.212 132.563 107.98 128.726 106.818 124.89C105.656 121.053 107.282 121.983 107.515 109.66Z" fill="#F7A054"/>
<path d="M82.6538 50.716H82.4215C82.5376 50.0185 82.6538 49.3209 82.6538 48.6234C83.1185 45.1356 84.1641 34.7885 71.8498 34.7885C59.5355 34.7885 60.581 45.1356 61.0457 48.6234C61.0457 49.3209 61.1619 50.0185 61.2781 50.716H61.0457C59.187 49.3209 59.0708 53.0412 59.7678 54.2038C60.4649 55.2502 60.4649 55.3664 60.8134 56.529C61.1619 57.3428 61.6266 57.4591 62.0913 57.3428C62.0913 57.9241 62.0913 58.2729 62.2074 58.6217C62.3236 60.5981 66.9705 64.4347 68.0161 65.5973C68.9455 66.6436 70.5719 66.2948 71.0366 66.1786C71.6174 66.1786 71.8498 66.1786 71.8498 66.1786C71.8498 66.1786 72.0821 66.1786 72.663 66.1786C73.1277 66.2948 74.7541 66.6436 75.7996 65.5973C76.729 64.4347 81.3759 60.5981 81.4921 58.6217C81.6083 58.2729 81.6083 57.9241 81.7244 57.3428C82.073 57.4591 82.5376 57.3428 82.8862 56.529C83.2347 55.3664 83.2347 55.2502 83.9317 54.2038C84.6287 53.0412 84.5126 49.3209 82.6538 50.716Z" fill="#FFBA80"/>
<path d="M92.2964 93.7321C94.8522 98.2662 99.1506 103.73 98.4535 107.683C97.5242 112.799 99.7314 123.03 99.1506 127.447C98.3374 133.725 98.6859 134.423 103.217 133.493C108.212 132.563 107.98 128.726 106.818 124.89C105.656 121.053 107.283 121.983 107.515 109.66C107.515 108.73 106.702 106.288 106.586 105.242C106.121 96.8711 102.752 87.8029 99.3829 80.5948H92.2964V93.7321Z" fill="#FFBA80"/>
<path d="M71.8499 66.1786C71.8499 66.1786 72.0822 66.1786 72.6631 66.1786C73.1278 66.2949 74.7542 66.6437 75.7997 65.5973C76.7291 64.4347 81.376 60.5982 81.4922 58.6218C81.6083 58.273 81.6083 57.9242 81.7245 57.3429C82.073 57.4592 82.5377 57.3429 82.8862 56.5291C83.2348 55.3665 83.2348 55.2502 83.9318 54.2039C84.6288 53.0413 84.5127 49.321 82.6539 50.7161H82.4216C82.5377 50.0185 82.6539 49.321 82.6539 48.6234C83.0024 46.4145 83.4671 41.5316 80.7951 38.16H71.8499V66.1786Z" fill="#F7A054"/>
<path d="M71.7337 40.7177C71.7337 40.7177 71.1529 43.5079 73.7087 44.903C76.1483 46.2981 79.8658 48.042 80.679 50.3672C81.376 52.6924 82.1893 55.4827 83.351 56.1802C84.6289 56.994 85.6744 49.7859 85.0936 48.7396C84.5127 47.8095 83.8157 41.8803 83.2348 40.7177C78.9364 31.8819 71.7337 33.8583 71.7337 33.8583V40.7177Z" fill="#4F250A"/>
<path d="M71.9661 40.7177C71.9661 40.7177 72.547 43.5079 70.1073 44.903C67.5515 46.2981 63.834 48.042 63.0208 50.3672C62.3238 52.6924 61.5106 55.4827 60.3488 56.1802C59.0709 56.994 58.0254 49.7859 58.6063 48.7396C59.1871 47.8095 59.8842 41.8803 60.465 40.7177C64.7634 31.8819 71.9661 33.8583 71.9661 33.8583V40.7177Z" fill="#693514"/>
<path d="M82.4216 49.4371C82.4216 50.1347 81.2599 55.1339 81.1437 56.7615C80.679 59.7843 78.5879 61.2956 77.8909 61.9932C77.31 62.6908 75.1027 63.3883 74.2895 63.7371C73.3601 63.9696 70.3397 63.9696 69.4103 63.7371C68.5971 63.3883 66.506 62.6908 65.8089 61.9932C65.2281 61.2956 63.0208 59.7843 62.6723 56.7615C62.4399 55.1339 61.2782 50.1347 61.2782 49.4371C61.2782 49.0884 61.0459 49.2046 60.9297 49.6697C60.9297 50.0184 61.0459 50.3672 61.0459 50.716L61.8591 57.4591C61.8591 57.9241 61.9752 58.3891 61.9752 58.7379C61.9752 58.8542 62.0914 59.0867 62.0914 59.3192C62.3238 59.668 62.6723 60.2493 63.137 60.9469C64.6472 62.807 67.203 64.8997 67.9 65.8298C68.8294 66.9924 70.572 66.5273 71.0367 66.4111C71.6176 66.4111 71.8499 66.4111 71.8499 66.4111C71.8499 66.4111 72.0823 66.4111 72.6631 66.4111C73.1278 66.5273 74.8704 66.9924 75.7998 65.8298C76.613 64.8997 79.0526 62.807 80.5628 60.9469C81.0275 60.2493 81.3761 59.668 81.6084 59.3192C81.7246 59.0867 81.7246 58.8542 81.7246 58.7379C81.7246 58.3891 81.8407 57.9241 81.8407 57.4591L82.654 50.716C82.654 50.3672 82.7701 50.0184 82.7701 49.6697C82.654 49.2046 82.4216 49.0884 82.4216 49.4371Z" fill="#4F250A"/>
<path d="M75.2189 60.2493C73.8249 58.9705 71.8499 58.6217 71.8499 58.6217C71.8499 58.6217 69.875 58.9705 68.4809 60.2493C67.0868 61.5282 68.4809 63.8534 68.4809 63.8534L68.8294 63.5046C67.3192 60.3656 71.8499 60.2493 71.8499 60.2493C71.8499 60.2493 76.3806 60.3656 74.8704 63.5046L75.2189 63.8534C75.2189 63.8534 76.613 61.5282 75.2189 60.2493Z" fill="#4F250A"/>
<path d="M72.8956 64.4346C72.4309 63.9696 71.85 64.0858 71.85 64.0858C71.85 64.0858 71.2692 63.9696 70.8045 64.4346C70.3398 64.7834 69.4104 64.5509 69.4104 64.5509L71.3853 66.0622L71.85 65.5972L72.3147 66.0622L74.2896 64.5509C74.2896 64.5509 73.3603 64.7834 72.8956 64.4346Z" fill="#4F250A"/>
<path d="M71.8498 134.307C71.8498 134.307 69.1778 136.283 68.597 151.978C67.7838 170.812 67.0867 179.183 67.0867 179.183H54.6563L53.2622 151.978V114.078L71.8498 112.799V134.307Z" fill="#172C57"/>
<path d="M71.8499 134.307C71.8499 134.307 74.5218 136.283 75.2189 151.978C76.0321 170.812 76.7291 179.183 76.7291 179.183H89.0434L90.5536 151.978V114.078L71.8499 112.799V134.307Z" fill="#0E1F42"/>
<path d="M90.2053 178.718L91.1347 157.791H82.8865V178.718H90.2053Z" fill="#B05D2A"/>
<path d="M75.4514 178.718L74.522 157.791H82.8864V178.718H75.4514Z" fill="#B05D2A"/>
<path d="M75.219 181.043C75.219 176.625 78.588 173.021 82.8864 173.021C87.0686 173.021 90.5538 176.625 90.5538 181.043C90.5538 181.043 90.4376 181.508 89.7406 181.508C89.0435 181.508 82.8864 181.508 82.8864 181.508C82.8864 181.508 76.6131 181.508 75.916 181.508C75.219 181.508 75.219 181.043 75.219 181.043Z" fill="#853A0C"/>
<path d="M73.7087 152.792C73.7087 152.327 74.0573 151.978 74.4058 151.978H91.367C91.7155 151.978 91.9478 152.327 91.9478 152.792V158.605C91.9478 159.07 91.7155 159.303 91.367 159.303H74.4058C74.0573 159.303 73.7087 159.07 73.7087 158.605V152.792Z" fill="#853A0C"/>
<path d="M63.3693 68.2712C63.137 68.2712 63.0208 68.2712 62.9046 68.3875C61.7429 68.5038 60.3488 68.5038 58.9548 68.62C58.8386 68.62 58.7224 68.62 58.4901 68.62C56.1666 68.62 54.424 68.7363 54.424 68.7363C46.5243 68.8525 39.554 87.8029 39.554 87.8029L51.7521 94.6622L53.2623 91.6395V114.078H71.8499V89.8956V76.7582L63.3693 68.2712Z" fill="#7CA324"/>
<path d="M80.4466 68.2712C80.5628 68.2712 80.7951 68.2712 80.9113 68.3875C82.073 68.5038 83.3509 68.5038 84.745 68.62C84.9774 68.62 85.0935 68.62 85.3259 68.62C87.6493 68.62 89.2757 68.7363 89.2757 68.7363C97.2916 68.8525 104.262 87.8029 104.262 87.8029L92.0639 94.6622L90.5536 91.6395V114.078H71.966V89.8956H71.8499V76.7582L80.4466 68.2712Z" fill="#668A16"/>
<path d="M53.611 178.718L52.6816 157.791H60.9299V178.718H53.611Z" fill="#B36434"/>
<path d="M68.2486 178.718L69.1779 157.791H60.9297V178.718H68.2486Z" fill="#B36434"/>
<path d="M68.597 181.043C68.597 176.625 65.228 173.021 60.9296 173.021C56.7474 173.021 53.2622 176.625 53.2622 181.043C53.2622 181.043 53.3784 181.508 54.0754 181.508C54.7724 181.508 60.9296 181.508 60.9296 181.508C60.9296 181.508 67.0867 181.508 67.7838 181.508C68.4808 181.508 68.597 181.043 68.597 181.043Z" fill="#964514"/>
<path d="M70.1075 152.792C70.1075 152.327 69.7589 151.978 69.4104 151.978H52.4492C52.1007 151.978 51.7522 152.327 51.7522 152.792V158.605C51.7522 159.07 52.1007 159.303 52.4492 159.303H69.4104C69.7589 159.303 70.1075 159.07 70.1075 158.605V152.792Z" fill="#964514"/>
<path d="M70.8045 64.4346C70.3398 64.7834 69.4104 64.5509 69.4104 64.5509L71.3853 66.0622L71.85 65.5972V64.0858C71.85 64.0858 71.2692 63.9696 70.8045 64.4346Z" fill="#693514"/>
<path d="M69.4103 63.7371C68.5971 63.3883 66.506 62.6908 65.8089 61.9932C65.2281 61.2956 63.0208 59.7843 62.6723 56.7615C62.4399 55.1339 61.2782 50.1347 61.2782 49.4371C61.2782 49.0884 61.0459 49.2046 60.9297 49.6697C60.9297 50.0184 61.0459 50.3672 61.0459 50.716L61.8591 57.4591C61.8591 57.9241 61.9752 58.3891 61.9752 58.7379C61.9752 58.8542 62.0914 59.0867 62.0914 59.3192C62.3238 59.668 62.6723 60.2493 63.137 60.9469C64.6472 62.807 67.203 64.8997 67.9 65.8298C68.8294 66.9924 70.572 66.5273 71.0367 66.4111C71.6176 66.4111 71.8499 66.4111 71.8499 66.4111V63.9696C70.9205 63.9696 69.875 63.8534 69.4103 63.7371Z" fill="#693514"/>
<path d="M68.4809 60.2493C67.0868 61.5282 68.4809 63.8534 68.4809 63.8534L68.8294 63.5046C67.3192 60.3656 71.8499 60.2493 71.8499 60.2493V58.6217C71.8499 58.6217 69.875 58.9705 68.4809 60.2493Z" fill="#693514"/>
<path d="M53.2622 114.078V68.7363L59.187 68.62V90.8256H71.8498V114.078H53.2622Z" fill="#172C57"/>
<path d="M90.4375 114.078V68.7363L84.5127 68.62V90.8256H71.8499V114.078H90.4375Z" fill="#0E1F42"/>
<path d="M79.1689 108.265C79.0527 108.73 78.7042 108.962 78.2395 108.962H65.4605C64.9958 108.962 64.6473 108.73 64.6473 108.265L62.6724 97.5687C62.6724 97.2199 62.9047 96.8712 63.2532 96.8712H80.4468C80.7953 96.8712 81.1438 97.2199 81.0276 97.5687L79.1689 108.265Z" fill="#964514"/>
<path d="M80.4466 96.8712H71.8499V97.4525V97.5687V108.265V108.497V108.962H78.2393C78.704 108.962 79.0526 108.73 79.1687 108.265L81.0275 97.5687C81.1437 97.2199 80.7951 96.8712 80.4466 96.8712Z" fill="#853A0C"/>
<path d="M92.064 43.973C92.064 40.1364 83.0026 37.1136 71.85 37.1136C60.6974 37.1136 51.636 40.1364 51.636 43.973C51.636 47.6933 60.6974 50.8323 71.85 50.8323C83.0026 50.8323 92.064 47.6933 92.064 43.973Z" fill="#FFB804"/>
<path d="M71.8499 37.1136V50.8323C83.0024 50.8323 92.0639 47.6933 92.0639 43.973C92.0639 40.1364 83.0024 37.1136 71.8499 37.1136Z" fill="#FCA001"/>
<path d="M71.8498 44.9031C66.0412 44.9031 59.187 43.7405 59.187 42.6941C59.187 41.5315 60.6973 30.7194 71.8498 30.7194V44.9031Z" fill="#FCA001"/>
<path d="M71.8499 44.9031C77.6585 44.9031 84.5127 43.7405 84.5127 42.6941C84.5127 41.5315 84.1641 30.7194 71.8499 30.7194V44.9031Z" fill="#F58300"/>
<path d="M71.8498 41.4152C67.0867 41.4152 61.6266 40.4851 59.884 39.6713C59.4194 41.1827 59.187 42.3453 59.187 42.6941C59.187 43.7404 66.0412 44.903 71.8498 44.903C77.6584 44.903 84.5126 43.7404 84.5126 42.6941C84.5126 42.3453 84.3965 41.0664 84.0479 39.5551C82.5377 40.4851 76.8452 41.4152 71.8498 41.4152Z" fill="#964514"/>
<path d="M84.5127 42.6941C84.5127 42.3453 84.3965 41.0664 84.048 39.5551C82.5377 40.4851 76.8453 41.4152 71.8499 41.4152V44.903C77.6585 44.903 84.5127 43.7404 84.5127 42.6941Z" fill="#853A0C"/>
<path d="M7.25781 177.555H136.558V119.774H7.25781V177.555Z" fill="#B05D2A"/>
<path d="M7.25781 177.555H71.8497V119.774H7.25781V177.555Z" fill="#B36434"/>
<path d="M3.07568 120.821H140.159V116.752H3.07568V120.821Z" fill="#853A0C"/>
<path d="M3.07568 120.821H71.6175V116.752H3.07568V120.821Z" fill="#964514"/>
<path d="M0.0554199 116.868H143.296V109.311H0.0554199V116.868Z" fill="#4F250A"/>
<path d="M0.0554199 116.868H71.8501V109.311H0.0554199V116.868Z" fill="#693514"/>
<path d="M7.25781 109.311H19.5721V27.9291H7.25781V109.311Z" fill="#B36434"/>
<path d="M123.663 109.311H136.093V27.9291H123.663V109.311Z" fill="#B05D2A"/>
<path d="M0.0556641 23.5113L9.81416 0.259308H71.6179V28.743H0.0556641V23.5113Z" fill="#964514"/>
<path d="M143.18 23.5112L133.421 0.259277H71.6177V28.7429H143.18V23.5112Z" fill="#853A0C"/>
<path d="M0.0554199 28.743H71.6177V23.5113H0.0554199V28.743Z" fill="#693514"/>
<path d="M71.6177 28.743H143.18V23.5113H71.6177V28.743Z" fill="#693514"/>
<path d="M115.763 155.699C115.763 156.164 115.414 156.512 114.95 156.512H28.8659C28.4013 156.512 28.0527 156.164 28.0527 155.699V132.098C28.0527 131.633 28.4013 131.284 28.8659 131.284H114.95C115.414 131.284 115.763 131.633 115.763 132.098V155.699Z" fill="#A6DAF5"/>
<path d="M114.95 131.284H71.6177V156.512H114.95C115.415 156.512 115.763 156.164 115.763 155.699V132.098C115.763 131.633 115.415 131.284 114.95 131.284Z" fill="#77BBE6"/>
<path d="M44.8978 143.608L44.5493 144.886H41.7611L40.3671 151.281H37.6951L40.3671 138.957C38.973 139.073 38.0436 139.887 38.0436 142.794C38.0436 143.724 38.276 143.84 38.276 144.073C36.9981 144.073 36.301 143.608 36.301 142.212C36.301 139.771 38.0436 137.446 42.5743 137.446C43.2714 137.446 44.4331 137.678 45.5948 137.678C46.1757 137.678 46.7566 137.678 47.2212 137.446C46.9889 138.26 46.9889 139.422 45.4787 139.655C44.6654 139.655 43.8522 139.538 42.9229 139.306L41.9935 143.608H44.8978Z" fill="white"/>
<path d="M50.7064 146.049C50.2417 146.049 50.0094 145.7 50.0094 145.235C50.0094 144.654 50.2417 144.073 50.7064 143.956C50.7064 143.375 50.4741 143.026 50.0094 143.026C48.2668 143.026 47.5698 146.747 47.5698 148.142C47.5698 149.304 48.0344 149.537 48.7315 149.537C49.8932 149.537 50.4741 147.793 50.7064 146.049ZM52.1005 144.538C52.2167 144.654 52.449 144.77 52.6813 144.77C53.4945 144.77 53.9592 144.189 54.5401 143.84L54.6563 144.189C54.0754 145.003 53.146 145.584 52.1005 145.817C51.752 149.537 49.777 151.397 47.9183 151.397C45.9433 151.397 45.1301 150.583 45.1301 148.374C45.1301 143.84 47.3374 141.864 49.8932 141.864C51.6358 141.864 52.1005 143.259 52.1005 144.538Z" fill="white"/>
<path d="M58.3739 146.049C57.9092 146.049 57.6769 145.7 57.6769 145.235C57.6769 144.654 57.9092 144.073 58.3739 143.956C58.3739 143.375 58.1415 143.026 57.6769 143.026C55.9343 143.026 55.2372 146.747 55.2372 148.142C55.2372 149.304 55.7019 149.537 56.399 149.537C57.5607 149.537 58.1415 147.793 58.3739 146.049ZM59.768 144.538C59.8841 144.654 60.1165 144.77 60.3488 144.77C61.162 144.77 61.6267 144.189 62.3238 143.84V144.189C61.7429 145.003 60.8135 145.584 59.768 145.817C59.4194 149.537 57.4445 151.397 55.5857 151.397C53.6108 151.397 52.7976 150.583 52.7976 148.374C52.7976 143.84 55.0049 141.864 57.5607 141.864C59.3033 141.864 59.768 143.259 59.768 144.538Z" fill="white"/>
<path d="M63.0207 148.49C63.0207 149.653 63.6015 149.886 64.0662 149.886C64.5309 149.886 64.8794 149.421 65.228 148.955C65.228 148.723 65.3441 148.49 65.3441 148.374L66.3897 143.491C66.1573 143.142 65.8088 143.142 65.4603 143.142C64.0662 143.142 63.0207 146.049 63.0207 148.49ZM68.0161 148.374C67.8999 148.49 67.8999 148.723 67.8999 148.955C67.8999 149.304 68.0161 149.653 68.597 149.653C68.7131 149.653 68.8293 149.653 69.0617 149.537C68.4808 151.164 67.7838 151.281 67.0867 151.281C66.0412 151.281 65.4603 150.699 65.3441 149.886C64.7633 150.583 63.9501 151.397 62.7883 151.397C61.0457 151.397 60.5811 150.118 60.5811 149.072C60.5811 145.933 61.6266 142.096 65.3441 142.096C65.8088 142.096 66.2735 142.329 66.622 142.561L67.4352 138.725L70.1072 138.376L68.0161 148.374Z" fill="white"/>
<path d="M81.9569 141.515C81.6083 141.515 81.2598 141.399 81.0275 141.166C81.6083 140.817 81.9569 140.236 81.9569 139.538C81.9569 138.957 81.4922 138.376 80.5628 138.376C79.5172 138.376 78.8202 138.957 78.8202 140.004C78.8202 142.794 83.0024 143.026 83.0024 147.095C83.0024 149.653 81.0275 151.397 78.1232 151.397C76.6129 151.397 74.0571 151.048 74.0571 148.374C74.0571 146.63 75.335 145.7 76.7291 145.7C77.5423 145.7 78.1232 146.049 78.2393 146.63C76.7291 146.863 76.1482 147.444 76.1482 148.723C76.1482 149.886 77.0776 150.467 77.8908 150.467C79.4011 150.467 79.9819 149.188 79.9819 147.793C79.9819 144.421 76.0321 143.608 76.0321 140.934C76.0321 138.957 78.1232 137.446 80.3304 137.446C81.2598 137.446 83.4671 137.678 83.4671 139.655C83.4671 140.701 82.8862 141.515 81.9569 141.515Z" fill="white"/>
<path d="M88.5788 139.19C88.5788 139.19 88.3464 140.469 87.8818 142.096H89.0435L88.9273 142.794H87.7656C86.4877 148.607 86.4877 148.839 86.4877 148.839C86.4877 149.304 86.72 149.537 87.4171 149.537C88.2303 149.537 89.1596 148.607 89.8567 148.025H90.5537C89.6243 148.839 87.5332 151.281 86.1392 151.281C84.7451 151.281 83.9319 150.583 83.9319 149.304C83.9319 148.258 84.8613 144.421 85.0936 142.794H84.5127L84.6289 142.096H85.326L85.7906 139.539L88.5788 139.19Z" fill="white"/>
<path d="M91.3669 148.49C91.3669 149.653 92.0639 149.886 92.5286 149.886C92.8771 149.886 93.3418 149.421 93.6903 148.955C93.6903 148.723 93.6903 148.49 93.8065 148.374L94.7359 143.491C94.5035 143.142 94.155 143.142 93.9227 143.142C92.5286 143.142 91.3669 146.049 91.3669 148.49ZM97.7564 142.096L96.3623 148.374C96.3623 148.49 96.3623 148.723 96.3623 148.839C96.3623 149.304 96.4785 149.537 97.2917 149.537C97.9887 149.537 98.9181 148.607 99.6151 148.025H100.312C99.3828 148.839 97.4078 151.281 95.8976 151.281C94.7359 151.281 93.9227 150.816 93.6903 149.886C93.1095 150.583 92.2962 151.397 91.2507 151.397C89.3919 151.397 88.9272 150.118 88.9272 149.072C88.9272 145.933 90.089 142.096 93.6903 142.096C94.155 142.096 94.6197 142.329 94.9682 142.561L95.0844 142.096H97.7564Z" fill="white"/>
<path d="M103.217 138.376L101.126 148.374C101.126 148.607 101.009 148.723 101.009 148.955C101.009 149.304 101.242 149.537 101.939 149.537C102.636 149.537 103.681 148.607 104.378 148.025H104.959C104.146 148.839 102.055 151.281 100.661 151.281C99.2668 151.281 98.3374 150.583 98.3374 149.304C98.3374 148.955 98.4536 148.723 98.4536 148.374L100.545 138.725L103.217 138.376Z" fill="white"/>
<path d="M105.889 148.374C105.889 148.49 105.772 148.723 105.772 148.955C105.772 149.304 106.005 149.653 106.469 149.653C106.586 149.653 106.818 149.653 106.934 149.537C106.469 151.164 105.656 151.281 105.075 151.281C103.681 151.281 103.217 150.351 103.217 149.188C103.217 148.955 103.217 148.607 103.333 148.374L105.308 138.725L107.98 138.376L105.889 148.374Z" fill="white"/>
<path d="M20.6178 89.4305C20.6178 89.8955 20.1531 90.3606 19.6884 90.3606C19.1076 90.3606 18.759 89.8955 18.759 89.4305V84.7801C18.759 84.1988 19.1076 83.85 19.6884 83.85C20.1531 83.85 20.6178 84.1988 20.6178 84.7801V89.4305Z" fill="#4B2100"/>
<path d="M23.8707 93.4996C23.2898 92.5695 22.709 91.7557 22.5928 90.3606C22.4766 87.8029 21.0825 86.6403 19.6885 86.6403H19.5723H19.34C17.9459 86.6403 16.5518 87.8029 16.4356 90.3606C16.3195 91.7557 15.7386 92.5695 15.1577 93.4996C14.4607 94.6622 13.7637 95.7086 13.7637 97.9175C13.7637 101.173 16.3195 103.73 19.5723 103.73C22.709 103.73 25.2648 101.173 25.2648 97.9175C25.2648 95.7086 24.5677 94.6622 23.8707 93.4996Z" fill="#FFB804"/>
<path d="M20.5017 84.6639C20.5017 84.6639 21.4311 91.1744 27.4721 88.5005C26.6589 81.9899 20.5017 84.6639 20.5017 84.6639Z" fill="#668A16"/>
<path d="M25.2647 97.9175C25.2647 95.7086 24.5677 94.6622 23.8706 93.4996C23.2898 92.5695 22.7089 91.7557 22.5928 90.3606C22.4766 87.8029 21.0825 86.6403 19.6884 86.6403H19.5723V103.73C22.7089 103.73 25.2647 101.173 25.2647 97.9175Z" fill="#F58300"/>
<path d="M30.7249 89.4305C30.7249 89.8955 30.2602 90.3606 29.7956 90.3606C29.2147 90.3606 28.75 89.8955 28.75 89.4305V84.7801C28.75 84.1988 29.2147 83.85 29.7956 83.85C30.2602 83.85 30.7249 84.1988 30.7249 84.7801V89.4305Z" fill="#4B2100"/>
<path d="M33.9778 93.4996C33.397 92.5695 32.8161 91.7557 32.6999 90.3606C32.5838 87.8029 31.1897 86.6403 29.7956 86.6403H29.5633H29.3309C28.053 86.6403 26.659 87.8029 26.4266 90.3606C26.4266 91.7557 25.8457 92.5695 25.2649 93.4996C24.5678 94.6622 23.7546 95.7086 23.7546 97.9175C23.7546 101.173 26.4266 103.73 29.5633 103.73C32.8161 103.73 35.3719 101.173 35.3719 97.9175C35.3719 95.7086 34.6749 94.6622 33.9778 93.4996Z" fill="#FFB804"/>
<path d="M30.6086 84.6639C30.6086 84.6639 31.538 91.1744 37.579 88.5005C36.7658 81.9899 30.6086 84.6639 30.6086 84.6639Z" fill="#668A16"/>
<path d="M35.3716 97.9175C35.3716 95.7086 34.6746 94.6622 33.9775 93.4996C33.3967 92.5695 32.8158 91.7557 32.6996 90.3606C32.5835 87.8029 31.1894 86.6403 29.7953 86.6403H29.563V103.73C32.8158 103.73 35.3716 101.173 35.3716 97.9175Z" fill="#F58300"/>
<path d="M40.8316 89.4305C40.8316 89.8955 40.3669 90.3606 39.7861 90.3606C39.3214 90.3606 38.8567 89.8955 38.8567 89.4305V84.7801C38.8567 84.1988 39.3214 83.85 39.7861 83.85C40.3669 83.85 40.8316 84.1988 40.8316 84.7801V89.4305Z" fill="#4B2100"/>
<path d="M43.9686 93.4996C43.3877 92.5695 42.923 91.7557 42.8069 90.3606C42.5745 87.8029 41.1804 86.6403 39.9025 86.6403H39.6702H39.4379C38.16 86.6403 36.7659 87.8029 36.5335 90.3606C36.4174 91.7557 35.9527 92.5695 35.3718 93.4996C34.6748 94.6622 33.8616 95.7086 33.8616 97.9175C33.8616 101.173 36.5335 103.73 39.6702 103.73C42.923 103.73 45.4788 101.173 45.4788 97.9175C45.4788 95.7086 44.7818 94.6622 43.9686 93.4996Z" fill="#FFB804"/>
<path d="M40.7156 84.6639C40.7156 84.6639 41.645 91.1744 47.6859 88.5005C46.7565 81.9899 40.7156 84.6639 40.7156 84.6639Z" fill="#668A16"/>
<path d="M45.4788 97.9175C45.4788 95.7086 44.7818 94.6622 43.9686 93.4996C43.3877 92.5695 42.923 91.7557 42.8068 90.3606C42.5745 87.8029 41.1804 86.6403 39.9025 86.6403H39.6702V103.73C42.923 103.73 45.4788 101.173 45.4788 97.9175Z" fill="#F58300"/>
<path d="M12.6018 109.311H46.5242V101.173H12.6018V109.311Z" fill="#172C57"/>
<path d="M29.563 109.311H46.5242V101.173H29.563V109.311Z" fill="#0E1F42"/>
<path d="M127.613 85.2451C127.613 85.2451 126.567 84.7801 126.451 88.2679C126.335 91.8719 127.38 93.3833 127.38 93.3833C127.38 93.3833 128.542 91.9882 128.658 88.3841C128.774 84.7801 127.613 85.2451 127.613 85.2451Z" fill="#7CA324"/>
<path d="M130.749 88.0353C130.749 88.0353 130.052 87.454 129.123 90.0118C128.193 92.4532 128.658 93.8483 128.658 93.8483C128.658 93.8483 129.82 93.0345 130.749 90.5931C131.679 88.0353 130.749 88.0353 130.749 88.0353Z" fill="#7CA324"/>
<path d="M124.476 87.9192C124.476 87.9192 125.173 87.2217 125.87 89.8956C126.683 92.4533 126.102 93.7322 126.102 93.7322C126.102 93.7322 124.941 92.9184 124.244 90.3607C123.547 87.6867 124.476 87.9192 124.476 87.9192Z" fill="#7CA324"/>
<path d="M128.542 93.2671C127.845 93.1508 126.915 93.1508 126.335 93.1508L124.476 93.0346C123.895 93.0346 123.546 93.4996 123.663 94.0809L126.683 106.869C126.799 107.451 127.032 107.451 127.264 106.869L131.098 94.4297C131.214 93.7321 130.865 93.2671 130.284 93.2671H128.542Z" fill="#FCA001"/>
<path d="M128.31 96.1736L123.779 94.7784L124.36 97.3362L128.31 96.4061C128.658 96.4061 128.658 96.2898 128.31 96.1736Z" fill="#F58300"/>
<path d="M127.613 99.4289L124.708 98.6151L125.057 100.243L127.613 99.6614C127.845 99.6614 127.845 99.5451 127.613 99.4289Z" fill="#F58300"/>
<path d="M126.916 102.103L125.406 101.638L125.638 102.568L126.916 102.335C127.032 102.335 127.032 102.219 126.916 102.103Z" fill="#F58300"/>
<path d="M119.016 85.2451C119.016 85.2451 117.854 84.7801 117.738 88.2679C117.622 91.8719 118.667 93.3833 118.667 93.3833C118.667 93.3833 119.829 91.9882 119.945 88.3841C120.178 84.7801 119.016 85.2451 119.016 85.2451Z" fill="#7CA324"/>
<path d="M122.037 88.0353C122.037 88.0353 121.34 87.454 120.41 90.0118C119.481 92.4532 119.946 93.8483 119.946 93.8483C119.946 93.8483 121.107 93.0345 122.037 90.5931C122.966 88.0353 122.037 88.0353 122.037 88.0353Z" fill="#7CA324"/>
<path d="M115.763 87.9192C115.763 87.9192 116.46 87.2217 117.157 89.8956C117.97 92.4533 117.389 93.7322 117.389 93.7322C117.389 93.7322 116.228 92.9184 115.531 90.3607C114.834 87.6867 115.763 87.9192 115.763 87.9192Z" fill="#7CA324"/>
<path d="M119.829 93.2671C119.248 93.1508 118.203 93.1508 117.622 93.1508L115.763 93.0346C115.182 93.0346 114.834 93.4996 114.95 94.0809L117.97 106.869C118.087 107.451 118.319 107.451 118.551 106.869L122.385 94.4297C122.501 93.7321 122.153 93.2671 121.572 93.2671H119.829Z" fill="#FCA001"/>
<path d="M119.597 96.1736L115.066 94.7784L115.763 97.3362L119.597 96.4061C119.945 96.4061 119.945 96.2898 119.597 96.1736Z" fill="#F58300"/>
<path d="M118.9 99.4289L115.995 98.6151L116.344 100.243L118.9 99.6614C119.132 99.6614 119.132 99.5451 118.9 99.4289Z" fill="#F58300"/>
<path d="M118.203 102.103L116.692 101.638L116.925 102.568L118.203 102.335C118.435 102.335 118.435 102.219 118.203 102.103Z" fill="#F58300"/>
<path d="M110.303 85.2451C110.303 85.2451 109.141 84.7801 109.025 88.2679C108.909 91.8719 109.955 93.3833 109.955 93.3833C109.955 93.3833 111.232 91.9882 111.349 88.3841C111.465 84.7801 110.303 85.2451 110.303 85.2451Z" fill="#7CA324"/>
<path d="M113.323 88.0353C113.323 88.0353 112.626 87.454 111.697 90.0118C110.768 92.4532 111.232 93.8483 111.232 93.8483C111.232 93.8483 112.394 93.0345 113.323 90.5931C114.253 88.0353 113.323 88.0353 113.323 88.0353Z" fill="#7CA324"/>
<path d="M107.05 87.9192C107.05 87.9192 107.747 87.2217 108.444 89.8956C109.257 92.4533 108.677 93.7322 108.677 93.7322C108.677 93.7322 107.631 92.9184 106.818 90.3607C106.121 87.6867 107.05 87.9192 107.05 87.9192Z" fill="#7CA324"/>
<path d="M111.116 93.2671C110.535 93.1508 109.49 93.1508 108.909 93.1508L107.166 93.0346C106.469 93.0346 106.121 93.4996 106.237 94.0809L109.258 106.869C109.374 107.451 109.606 107.451 109.838 106.869L113.672 94.4297C113.788 93.7321 113.44 93.2671 112.859 93.2671H111.116Z" fill="#FCA001"/>
<path d="M111 96.1736L106.469 94.7784L107.05 97.3362L110.884 96.4061C111.233 96.4061 111.233 96.2898 111 96.1736Z" fill="#F58300"/>
<path d="M110.187 99.4289L107.282 98.6151L107.747 100.243L110.187 99.6614C110.419 99.6614 110.419 99.5451 110.187 99.4289Z" fill="#F58300"/>
<path d="M109.49 102.103L107.98 101.638L108.212 102.568L109.49 102.335C109.722 102.335 109.722 102.219 109.49 102.103Z" fill="#F58300"/>
<path d="M101.59 85.2451C101.59 85.2451 100.428 84.7801 100.312 88.2679C100.196 91.8719 101.358 93.3833 101.358 93.3833C101.358 93.3833 102.519 91.9882 102.636 88.3841C102.752 84.7801 101.59 85.2451 101.59 85.2451Z" fill="#7CA324"/>
<path d="M104.611 88.0353C104.611 88.0353 103.914 87.454 102.984 90.0118C102.171 92.4532 102.52 93.8483 102.52 93.8483C102.52 93.8483 103.681 93.0345 104.611 90.5931C105.54 88.0353 104.611 88.0353 104.611 88.0353Z" fill="#7CA324"/>
<path d="M98.3373 87.9192C98.3373 87.9192 99.0343 87.2217 99.8475 89.8956C100.545 92.4533 99.9637 93.7322 99.9637 93.7322C99.9637 93.7322 98.9181 92.9184 98.1049 90.3607C97.4079 87.6867 98.3373 87.9192 98.3373 87.9192Z" fill="#7CA324"/>
<path d="M102.404 93.2671C101.823 93.1508 100.777 93.1508 100.196 93.1508L98.4536 93.0346C97.8728 93.0346 97.4081 93.4996 97.5243 94.0809L100.545 106.869C100.661 107.451 100.893 107.451 101.126 106.869L104.959 94.4297C105.192 93.7321 104.843 93.2671 104.146 93.2671H102.404Z" fill="#FCA001"/>
<path d="M102.287 96.1736L97.7563 94.7784L98.3372 97.3362L102.287 96.4061C102.636 96.4061 102.636 96.2898 102.287 96.1736Z" fill="#F58300"/>
<path d="M101.474 99.4289L98.5696 98.6151L99.0343 100.243L101.474 99.6614C101.706 99.6614 101.822 99.5451 101.474 99.4289Z" fill="#F58300"/>
<path d="M100.777 102.103L99.3828 101.638L99.499 102.568L100.777 102.335C101.009 102.335 101.009 102.219 100.777 102.103Z" fill="#F58300"/>
<path d="M96.9431 109.311H130.749V101.173H96.9431V109.311Z" fill="#172C57"/>
<path d="M113.788 109.311H130.749V101.173H113.788V109.311Z" fill="#0E1F42"/>
<path d="M29.9115 173.021C23.2897 173.021 16.784 174.184 18.2942 169.882C19.8045 165.464 18.8751 153.373 22.9411 150.932C27.0072 148.607 27.8204 148.374 28.1689 144.886H29.9115V173.021Z" fill="#FCA001"/>
<path d="M29.9116 173.021C36.5335 173.021 42.9229 174.184 41.4127 169.882C39.9025 165.464 40.8318 153.373 36.7658 150.932C32.6998 148.607 32.0027 148.374 31.6542 144.886H29.9116V173.021Z" fill="#F58300"/>
<path d="M27.8205 146.863C27.8205 146.863 24.103 144.073 23.9868 141.98C23.9868 141.98 25.6132 141.631 27.0073 141.98C28.4014 142.212 28.8661 142.212 29.9116 142.212V147.212L27.8205 146.863Z" fill="#FCA001"/>
<path d="M32.0027 146.863C32.0027 146.863 35.6041 144.073 35.7202 141.98C35.7202 141.98 34.0938 141.631 32.6998 141.98C31.3057 142.212 30.841 142.212 29.9116 142.212V147.212L32.0027 146.863Z" fill="#F58300"/>
<path d="M29.7957 148.025C28.2855 148.025 27.3561 147.444 27.3561 147.444C27.1238 147.328 27.1238 147.095 27.1238 146.863C27.24 146.747 27.4723 146.63 27.7046 146.747C27.8208 146.747 29.5634 147.677 32.003 146.747C32.2354 146.63 32.4677 146.747 32.5839 146.979C32.5839 147.212 32.4677 147.444 32.3515 147.56C31.4222 147.909 30.4928 148.025 29.7957 148.025Z" fill="#172C57"/>
<path d="M29.7955 148.723C28.2852 148.723 27.2397 148.258 27.1235 148.142C27.0073 148.142 26.8912 147.793 27.0073 147.677C27.1235 147.444 27.3559 147.328 27.5882 147.444C27.5882 147.56 29.5631 148.491 32.2351 147.56C32.3513 147.444 32.5836 147.56 32.6998 147.793C32.816 147.909 32.6998 148.142 32.4675 148.258C31.4219 148.607 30.6087 148.723 29.7955 148.723Z" fill="#172C57"/>
<path d="M18.0622 173.021C9.34922 173.021 1.10097 174.533 2.95973 168.836C4.93467 163.139 3.77294 147.444 9.0007 144.305C14.3446 141.166 15.274 140.934 15.7387 136.516H18.0622V173.021Z" fill="#7CA324"/>
<path d="M18.062 173.021C26.6588 173.021 35.0232 174.533 33.0483 168.836C31.0733 163.139 32.3512 147.444 27.0073 144.305C21.6634 141.166 20.734 140.934 20.2693 136.516H18.062V173.021Z" fill="#668A16"/>
<path d="M15.274 138.957C15.274 138.957 10.5109 135.353 10.3948 132.563C10.3948 132.563 12.4859 132.214 14.3446 132.563C16.2034 132.912 16.7843 132.912 18.0622 132.912V139.538L15.274 138.957Z" fill="#7CA324"/>
<path d="M20.734 138.957C20.734 138.957 25.4971 135.353 25.7294 132.563C25.7294 132.563 23.5221 132.214 21.6634 132.563C19.9208 132.912 19.3399 132.912 18.062 132.912V139.538L20.734 138.957Z" fill="#668A16"/>
<path d="M17.9458 140.352C15.9709 140.352 14.8091 139.771 14.693 139.771C14.4606 139.538 14.3444 139.306 14.4606 139.073C14.693 138.725 14.9253 138.725 15.2738 138.841C15.2738 138.841 17.5973 140.003 20.8501 138.841C21.0824 138.725 21.431 138.841 21.5471 139.073C21.5471 139.422 21.431 139.655 21.1986 139.771C19.9207 140.236 18.8752 140.352 17.9458 140.352Z" fill="#172C57"/>
<path d="M17.9457 141.399C15.8546 141.399 14.5767 140.701 14.5767 140.701C14.2282 140.585 14.2282 140.236 14.3444 140.004C14.4606 139.771 14.8091 139.655 15.0414 139.771C15.0414 139.771 17.5972 141.05 21.0824 139.771C21.3147 139.655 21.5471 139.887 21.6633 140.12C21.7794 140.352 21.6633 140.701 21.4309 140.817C20.0368 141.282 18.8751 141.399 17.9457 141.399Z" fill="#172C57"/>
<path d="M126.102 173.021C118.203 173.021 110.535 174.416 112.278 169.185C114.137 163.837 112.975 149.421 117.854 146.63C122.733 143.724 123.663 143.491 124.011 139.422H126.102V173.021Z" fill="#FCA001"/>
<path d="M126.103 173.021C134.118 173.021 141.786 174.416 139.927 169.185C138.184 163.837 139.346 149.421 134.467 146.63C129.588 143.724 128.658 143.491 128.31 139.422H126.103V173.021Z" fill="#F58300"/>
<path d="M123.663 141.631C123.663 141.631 119.248 138.26 119.132 135.818C119.132 135.818 121.107 135.469 122.733 135.818C124.476 136.167 124.941 136.167 126.102 136.167V142.096L123.663 141.631Z" fill="#FCA001"/>
<path d="M128.658 141.631C128.658 141.631 133.073 138.26 133.189 135.818C133.189 135.818 131.214 135.469 129.588 135.818C127.845 136.167 127.38 136.167 126.103 136.167V142.096L128.658 141.631Z" fill="#F58300"/>
<path d="M126.103 143.026C124.36 143.026 123.198 142.445 123.082 142.329C122.85 142.212 122.85 141.98 122.966 141.747C123.082 141.515 123.314 141.399 123.547 141.515C123.663 141.515 125.754 142.678 128.775 141.515C129.007 141.399 129.239 141.515 129.355 141.864C129.472 142.096 129.355 142.329 129.123 142.445C127.961 142.91 126.916 143.026 126.103 143.026Z" fill="#172C57"/>
<path d="M126.103 143.956C124.244 143.956 122.966 143.259 122.966 143.259C122.734 143.142 122.617 142.794 122.734 142.561C122.85 142.329 123.198 142.329 123.431 142.445C123.431 142.445 125.754 143.608 128.891 142.445C129.123 142.329 129.472 142.445 129.588 142.677C129.588 143.026 129.472 143.259 129.239 143.375C128.078 143.724 127.032 143.956 126.103 143.956Z" fill="#172C57"/>
<path d="M112.859 169.766C112.859 169.417 112.51 169.068 112.162 169.068H87.5332C87.0685 169.068 86.72 169.417 86.72 169.766V172.44C86.72 172.789 87.0685 173.138 87.5332 173.138H112.162C112.51 173.138 112.859 172.789 112.859 172.44V169.766Z" fill="#9A9A9A"/>
<path d="M112.859 164.651C112.859 164.186 112.51 163.837 112.162 163.837H87.5332C87.0685 163.837 86.72 164.186 86.72 164.651V167.208C86.72 167.557 87.0685 167.906 87.5332 167.906H112.162C112.51 167.906 112.859 167.557 112.859 167.208V164.651Z" fill="#9A9A9A"/>
<path d="M112.859 159.419C112.859 158.954 112.51 158.605 112.162 158.605H87.5332C87.0685 158.605 86.72 158.954 86.72 159.419V161.977C86.72 162.442 87.0685 162.79 87.5332 162.79H112.162C112.51 162.79 112.859 162.442 112.859 161.977V159.419Z" fill="#9A9A9A"/>
<path d="M90.67 172.44C90.67 172.789 90.3214 173.138 89.9729 173.138H89.2759C88.8112 173.138 88.5789 172.789 88.5789 172.44V158.489C88.5789 158.14 88.8112 157.791 89.2759 157.791H89.9729C90.3214 157.791 90.67 158.14 90.67 158.489V172.44Z" fill="#747474"/>
<path d="M108.909 172.44C108.909 172.789 109.257 173.138 109.722 173.138H110.303C110.768 173.138 111.116 172.789 111.116 172.44V158.489C111.116 158.14 110.768 157.791 110.303 157.791H109.722C109.257 157.791 108.909 158.14 108.909 158.489V172.44Z" fill="#747474"/>
<path d="M0.752441 181.741H142.483V172.44H0.752441V181.741Z" fill="#0E1F42"/>
<path d="M0.752441 181.741H72.0824V172.44H0.752441V181.741Z" fill="#172C57"/>
</svg>
