<svg width="172" height="51" viewBox="0 0 172 51" fill="none" xmlns="http://www.w3.org/2000/svg">
<path d="M164.792 50.4103H6.33814C2.85375 50.4103 0 47.5732 0 44.109V6.30132C0 2.83719 2.85375 3.189e-05 6.33814 3.189e-05H164.792C168.276 3.189e-05 171.13 2.83719 171.13 6.30132V44.109C171.13 47.5732 168.276 50.4103 164.792 50.4103Z" fill="black"/>
<path d="M164.792 1.00981C167.726 1.00981 170.114 3.38382 170.114 6.30132V44.109C170.114 47.0265 167.726 49.4005 164.792 49.4005H6.33814C3.40358 49.4005 1.01569 47.0265 1.01569 44.109V6.30132C1.01569 3.38382 3.40358 1.00981 6.33814 1.00981H164.792ZM164.792 3.189e-05H6.33814C2.85375 3.189e-05 0 2.83719 0 6.30132V44.109C0 47.5732 2.85375 50.4103 6.33814 50.4103H164.792C168.276 50.4103 171.13 47.5732 171.13 44.109V6.30132C171.13 2.83719 168.276 3.189e-05 164.792 3.189e-05Z" fill="#A6A6A6"/>
<path d="M60.1078 12.9099C60.1078 13.9622 59.7909 14.805 59.1666 15.4335C58.4488 16.1787 57.514 16.5536 56.3683 16.5536C55.2734 16.5536 54.3385 16.1724 53.5716 15.4209C52.8031 14.6585 52.4197 13.7227 52.4197 12.6027C52.4197 11.4826 52.8031 10.5469 53.5716 9.79075C54.3385 9.03302 55.2734 8.65179 56.3683 8.65179C56.9134 8.65179 57.4331 8.76363 57.9291 8.97158C58.4235 9.1811 58.8259 9.46465 59.1175 9.81437L58.4552 10.4792C57.9465 9.88211 57.2541 9.58753 56.3683 9.58753C55.5697 9.58753 54.8773 9.86478 54.2894 10.424C53.7079 10.9848 53.4163 11.7111 53.4163 12.6027C53.4163 13.4943 53.7079 14.2268 54.2894 14.7877C54.8773 15.3406 55.5697 15.6242 56.3683 15.6242C57.2161 15.6242 57.9291 15.3406 58.4916 14.7814C58.8624 14.4112 59.0731 13.9008 59.1286 13.2486H56.3683V12.338H60.0508C60.0952 12.535 60.1078 12.7256 60.1078 12.9099Z" fill="white" stroke="white" stroke-width="0.16" stroke-miterlimit="10"/>
<path d="M65.95 9.75294H62.491V12.1474H65.6093V13.058H62.491V15.4525H65.95V16.3803H61.5117V8.82508H65.95V9.75294Z" fill="white" stroke="white" stroke-width="0.16" stroke-miterlimit="10"/>
<path d="M70.0731 16.3803H69.0939V9.75294H66.9722V8.82508H72.1964V9.75294H70.0731V16.3803Z" fill="white" stroke="white" stroke-width="0.16" stroke-miterlimit="10"/>
<path d="M75.9768 16.3803V8.82508H76.9545V16.3803H75.9768Z" fill="white" stroke="white" stroke-width="0.16" stroke-miterlimit="10"/>
<path d="M81.2884 16.3803H80.3171V9.75294H78.1875V8.82508H83.418V9.75294H81.2884V16.3803Z" fill="white" stroke="white" stroke-width="0.16" stroke-miterlimit="10"/>
<path d="M93.3082 15.4083C92.5587 16.1724 91.6302 16.5536 90.5226 16.5536C89.4086 16.5536 88.4801 16.1724 87.7306 15.4083C86.9827 14.6459 86.6104 13.7101 86.6104 12.6027C86.6104 11.4952 86.9827 10.5595 87.7306 9.79705C88.4801 9.03302 89.4086 8.65179 90.5226 8.65179C91.6238 8.65179 92.5524 9.03301 93.3018 9.80335C94.0561 10.5721 94.4284 11.5015 94.4284 12.6027C94.4284 13.7101 94.0561 14.6459 93.3082 15.4083ZM88.4548 14.7751C89.0188 15.3406 89.7049 15.6242 90.5226 15.6242C91.3338 15.6242 92.0263 15.3406 92.584 14.7751C93.1466 14.2095 93.4318 13.4833 93.4318 12.6027C93.4318 11.7221 93.1466 10.9959 92.584 10.4303C92.0263 9.86479 91.3338 9.58123 90.5226 9.58123C89.7049 9.58123 89.0188 9.86479 88.4548 10.4303C87.8922 10.9959 87.607 11.7221 87.607 12.6027C87.607 13.4833 87.8922 14.2095 88.4548 14.7751Z" fill="white" stroke="white" stroke-width="0.16" stroke-miterlimit="10"/>
<path d="M95.8025 16.3803V8.82508H96.9909L100.686 14.701H100.729L100.686 13.2486V8.82508H101.664V16.3803H100.643L96.7738 10.2145H96.731L96.7738 11.6733V16.3803H95.8025Z" fill="white" stroke="white" stroke-width="0.16" stroke-miterlimit="10"/>
<path d="M86.3698 27.4138C83.3925 27.4138 80.9602 29.6665 80.9602 32.7747C80.9602 35.8576 83.3925 38.1339 86.3698 38.1339C89.3535 38.1339 91.7857 35.8576 91.7857 32.7747C91.7857 29.6665 89.3535 27.4138 86.3698 27.4138ZM86.3698 36.023C84.7362 36.023 83.3307 34.6824 83.3307 32.7747C83.3307 30.8417 84.7362 29.5248 86.3698 29.5248C88.0035 29.5248 89.4153 30.8417 89.4153 32.7747C89.4153 34.6824 88.0035 36.023 86.3698 36.023ZM74.5666 27.4138C71.5829 27.4138 69.157 29.6665 69.157 32.7747C69.157 35.8576 71.5829 38.1339 74.5666 38.1339C77.5487 38.1339 79.9762 35.8576 79.9762 32.7747C79.9762 29.6665 77.5487 27.4138 74.5666 27.4138ZM74.5666 36.023C72.9314 36.023 71.5211 34.6824 71.5211 32.7747C71.5211 30.8417 72.9314 29.5248 74.5666 29.5248C76.2003 29.5248 77.6057 30.8417 77.6057 32.7747C77.6057 34.6824 76.2003 36.023 74.5666 36.023ZM60.5213 29.0569V31.3348H65.9927C65.8327 32.6077 65.4048 33.5434 64.7488 34.1956C63.9502 34.9833 62.7064 35.8576 60.5213 35.8576C57.1542 35.8576 54.5175 33.1559 54.5175 29.8083C54.5175 26.4608 57.1542 23.7591 60.5213 23.7591C62.3419 23.7591 63.6666 24.4664 64.6443 25.3832L66.2589 23.778C64.8914 22.4799 63.0724 21.4827 60.5213 21.4827C55.904 21.4827 52.0234 25.2178 52.0234 29.8083C52.0234 34.3988 55.904 38.1339 60.5213 38.1339C63.0169 38.1339 64.8914 37.321 66.3651 35.7961C67.8751 34.2948 68.3457 32.1839 68.3457 30.4794C68.3457 29.9501 68.3014 29.4633 68.2221 29.0569H60.5213ZM117.954 30.8228C117.509 29.624 116.135 27.4138 113.337 27.4138C110.564 27.4138 108.255 29.5862 108.255 32.7747C108.255 35.7772 110.54 38.1339 113.603 38.1339C116.08 38.1339 117.509 36.6326 118.097 35.7583L116.259 34.5406C115.646 35.4322 114.811 36.023 113.603 36.023C112.404 36.023 111.543 35.4763 110.992 34.3988L118.203 31.4325L117.954 30.8228ZM110.602 32.6077C110.54 30.5408 112.217 29.4822 113.418 29.4822C114.359 29.4822 115.158 29.9501 115.424 30.6196L110.602 32.6077ZM104.741 37.8078H107.111V22.0546H104.741V37.8078ZM100.859 28.6079H100.78C100.247 27.981 99.2315 27.4138 97.9448 27.4138C95.2448 27.4138 92.7761 29.7705 92.7761 32.792C92.7761 35.7961 95.2448 38.1339 97.9448 38.1339C99.2315 38.1339 100.247 37.5621 100.78 36.9162H100.859V37.6849C100.859 39.7344 99.7575 40.8356 97.9813 40.8356C96.533 40.8356 95.6346 39.7959 95.2638 38.9216L93.2023 39.777C93.7965 41.1979 95.37 42.9465 97.9813 42.9465C100.761 42.9465 103.106 41.3208 103.106 37.3651V27.7399H100.859V28.6079ZM98.1477 36.023C96.514 36.023 95.1465 34.6635 95.1465 32.792C95.1465 30.9032 96.514 29.5248 98.1477 29.5248C99.7575 29.5248 101.027 30.9032 101.027 32.792C101.027 34.6635 99.7575 36.023 98.1477 36.023ZM129.052 22.0546H123.383V37.8078H125.747V31.8389H129.052C131.678 31.8389 134.253 29.9501 134.253 26.946C134.253 23.9434 131.672 22.0546 129.052 22.0546ZM129.114 29.6476H125.747V24.2459H129.114C130.879 24.2459 131.887 25.703 131.887 26.946C131.887 28.1653 130.879 29.6476 129.114 29.6476ZM143.728 27.3839C142.02 27.3839 140.244 28.1338 139.514 29.7957L141.611 30.67C142.063 29.7957 142.893 29.5122 143.771 29.5122C144.998 29.5122 146.241 30.2447 146.26 31.538V31.7034C145.833 31.4577 144.917 31.0938 143.79 31.0938C141.531 31.0938 139.228 32.3304 139.228 34.6383C139.228 36.7492 141.079 38.1087 143.16 38.1087C144.75 38.1087 145.628 37.3951 146.18 36.5649H146.26V37.7826H148.544V31.7397C148.544 28.9466 146.446 27.3839 143.728 27.3839ZM143.443 36.0167C142.67 36.0167 141.592 35.6354 141.592 34.6824C141.592 33.4631 142.936 32.9952 144.099 32.9952C145.14 32.9952 145.628 33.2236 146.26 33.5245C146.075 34.9833 144.812 36.0167 143.443 36.0167ZM156.863 27.7289L154.145 34.5579H154.064L151.255 27.7289H148.705L152.927 37.2722L150.518 42.5826H152.988L159.493 27.7289H156.863ZM135.552 37.8078H137.923V22.0546H135.552V37.8078Z" fill="white"/>
<path d="M13.2278 9.50087C12.8554 9.8884 12.6399 10.4918 12.6399 11.2731V39.1437C12.6399 39.9251 12.8554 40.5284 13.2278 40.9159L13.3197 41.001L29.0287 25.3896V25.0209L13.3197 9.40951L13.2278 9.50087Z" fill="url(#paint0_linear)"/>
<path d="M34.2594 30.596L29.0288 25.3896V25.021L34.2657 19.8145L34.383 19.8823L40.5848 23.3905C42.3547 24.3861 42.3547 26.0245 40.5848 27.0264L34.383 30.5283L34.2594 30.596Z" fill="url(#paint1_linear)"/>
<path d="M34.3829 30.5283L29.0288 25.2053L13.2278 40.916C13.8156 41.5304 14.7743 41.6044 15.8644 40.99L34.3829 30.5283Z" fill="url(#paint2_linear)"/>
<path d="M34.3829 19.8822L15.8644 9.42048C14.7743 8.8124 13.8156 8.88644 13.2278 9.50081L29.0288 25.2052L34.3829 19.8822Z" fill="url(#paint3_linear)"/>
<defs>
<linearGradient id="paint0_linear" x1="27.634" y1="39.4339" x2="6.48418" y2="18.1605" gradientUnits="userSpaceOnUse">
<stop stop-color="#00A0FF"/>
<stop offset="0.0066" stop-color="#00A1FF"/>
<stop offset="0.2601" stop-color="#00BEFF"/>
<stop offset="0.5122" stop-color="#00D2FF"/>
<stop offset="0.7604" stop-color="#00DFFF"/>
<stop offset="1" stop-color="#00E3FF"/>
</linearGradient>
<linearGradient id="paint1_linear" x1="42.8896" y1="25.2035" x2="12.2169" y2="25.2035" gradientUnits="userSpaceOnUse">
<stop stop-color="#FFE000"/>
<stop offset="0.4087" stop-color="#FFBD00"/>
<stop offset="0.7754" stop-color="#FFA500"/>
<stop offset="1" stop-color="#FF9C00"/>
</linearGradient>
<linearGradient id="paint2_linear" x1="31.4715" y1="22.3116" x2="2.79065" y2="-6.53694" gradientUnits="userSpaceOnUse">
<stop stop-color="#FF3A44"/>
<stop offset="1" stop-color="#C31162"/>
</linearGradient>
<linearGradient id="paint3_linear" x1="9.25035" y1="50.1883" x2="22.0576" y2="37.3062" gradientUnits="userSpaceOnUse">
<stop stop-color="#32A071"/>
<stop offset="0.0685" stop-color="#2DA771"/>
<stop offset="0.4762" stop-color="#15CF74"/>
<stop offset="0.8009" stop-color="#06E775"/>
<stop offset="1" stop-color="#00F076"/>
</linearGradient>
</defs>
</svg>
