<svg width="22" height="22" viewBox="0 0 22 22" fill="none" xmlns="http://www.w3.org/2000/svg">
<circle cx="11" cy="11" r="11" fill="#00A52E"/>
<path d="M11.125 7.60547C10.5599 7.60547 10.0312 7.7513 9.53906 8.04297C9.0651 8.31641 8.68229 8.69922 8.39062 9.19141C8.11719 9.66536 7.98047 10.1849 7.98047 10.75C7.98047 11.3151 8.11719 11.8438 8.39062 12.3359C8.68229 12.8099 9.0651 13.1927 9.53906 13.4844C10.0312 13.7578 10.5599 13.8945 11.125 13.8945C11.6901 13.8945 12.2096 13.7578 12.6836 13.4844C13.1758 13.1927 13.5586 12.8099 13.832 12.3359C14.1237 11.8438 14.2695 11.3151 14.2695 10.75C14.2695 10.1849 14.1237 9.66536 13.832 9.19141C13.5586 8.69922 13.1758 8.31641 12.6836 8.04297C12.2096 7.7513 11.6901 7.60547 11.125 7.60547ZM11.125 12.8008C10.5599 12.8008 10.0768 12.6003 9.67578 12.1992C9.27474 11.7982 9.07422 11.3151 9.07422 10.75C9.07422 10.1849 9.27474 9.70182 9.67578 9.30078C10.0768 8.89974 10.5599 8.69922 11.125 8.69922C11.6901 8.69922 12.1732 8.89974 12.5742 9.30078C12.9753 9.70182 13.1758 10.1849 13.1758 10.75C13.1758 11.3151 12.9753 11.7982 12.5742 12.1992C12.1732 12.6003 11.6901 12.8008 11.125 12.8008ZM15.1445 7.46875C15.1263 7.66927 15.0443 7.84245 14.8984 7.98828C14.7708 8.13411 14.6068 8.20703 14.4062 8.20703C14.2057 8.20703 14.0326 8.13411 13.8867 7.98828C13.7409 7.84245 13.668 7.66927 13.668 7.46875C13.668 7.26823 13.7409 7.09505 13.8867 6.94922C14.0326 6.80339 14.2057 6.73047 14.4062 6.73047C14.6068 6.73047 14.7799 6.80339 14.9258 6.94922C15.0716 7.09505 15.1445 7.26823 15.1445 7.46875ZM17.2227 8.20703C17.1862 7.67839 17.1042 7.22266 16.9766 6.83984C16.8125 6.38411 16.5573 5.99219 16.2109 5.66406C15.8828 5.31771 15.4909 5.0625 15.0352 4.89844C14.6523 4.77083 14.1966 4.69792 13.668 4.67969C13.1576 4.64323 12.3099 4.625 11.125 4.625C9.9401 4.625 9.08333 4.64323 8.55469 4.67969C8.04427 4.69792 7.59766 4.77083 7.21484 4.89844C6.75911 5.0625 6.35807 5.31771 6.01172 5.66406C5.68359 5.99219 5.4375 6.38411 5.27344 6.83984C5.14583 7.22266 5.0638 7.67839 5.02734 8.20703C5.00911 8.71745 5 9.5651 5 10.75C5 11.9349 5.00911 12.7917 5.02734 13.3203C5.0638 13.8307 5.14583 14.2773 5.27344 14.6602C5.4375 15.1159 5.68359 15.5169 6.01172 15.8633C6.35807 16.1914 6.75911 16.4284 7.21484 16.5742C7.59766 16.7201 8.04427 16.8021 8.55469 16.8203C9.08333 16.8568 9.9401 16.875 11.125 16.875C12.3099 16.875 13.1576 16.8568 13.668 16.8203C14.1966 16.8021 14.6523 16.7292 15.0352 16.6016C15.4909 16.4375 15.8828 16.1914 16.2109 15.8633C16.5573 15.5169 16.8125 15.1159 16.9766 14.6602C17.1042 14.2773 17.1771 13.8307 17.1953 13.3203C17.2318 12.7917 17.25 11.9349 17.25 10.75C17.25 9.5651 17.2409 8.71745 17.2227 8.20703ZM15.9102 14.3594C15.6914 14.9062 15.2995 15.2982 14.7344 15.5352C14.4427 15.6445 13.9505 15.7174 13.2578 15.7539C12.875 15.7721 12.3099 15.7812 11.5625 15.7812H10.6875C9.95833 15.7812 9.39323 15.7721 8.99219 15.7539C8.31771 15.7174 7.82552 15.6445 7.51562 15.5352C6.96875 15.3164 6.57682 14.9245 6.33984 14.3594C6.23047 14.0495 6.15755 13.5573 6.12109 12.8828C6.10286 12.4818 6.09375 11.9167 6.09375 11.1875V10.3125C6.09375 9.58333 6.10286 9.01823 6.12109 8.61719C6.15755 7.92448 6.23047 7.43229 6.33984 7.14062C6.55859 6.57552 6.95052 6.18359 7.51562 5.96484C7.82552 5.85547 8.31771 5.78255 8.99219 5.74609C9.39323 5.72786 9.95833 5.71875 10.6875 5.71875H11.5625C12.2917 5.71875 12.8568 5.72786 13.2578 5.74609C13.9505 5.78255 14.4427 5.85547 14.7344 5.96484C15.2995 6.18359 15.6914 6.57552 15.9102 7.14062C16.0195 7.43229 16.0924 7.92448 16.1289 8.61719C16.1471 9 16.1562 9.5651 16.1562 10.3125V11.1875C16.1562 11.9167 16.1471 12.4818 16.1289 12.8828C16.0924 13.5573 16.0195 14.0495 15.9102 14.3594Z" fill="white"/>
</svg>
