<svg width="22" height="22" viewBox="0 0 22 22" fill="none" xmlns="http://www.w3.org/2000/svg">
<circle cx="11" cy="11" r="11" fill="#00A52E"/>
<path d="M16.2227 6.45703L14.3633 15.1523C14.2904 15.4622 14.1628 15.6628 13.9805 15.7539C13.8164 15.8268 13.6068 15.7904 13.3516 15.6445L10.5352 13.5664L9.16797 14.8789C9.07682 14.9701 9.00391 15.0339 8.94922 15.0703C8.85807 15.125 8.73958 15.1523 8.59375 15.1523L8.8125 12.2812L14.0352 7.55078C14.1081 7.49609 14.1263 7.45052 14.0898 7.41406C14.0716 7.35938 14.0169 7.34115 13.9258 7.35938C13.8529 7.35938 13.7708 7.38672 13.6797 7.44141L7.22656 11.5156L4.4375 10.6406C4.1276 10.5495 3.98177 10.4128 4 10.2305C4.01823 10.0482 4.20964 9.88411 4.57422 9.73828L15.4297 5.55469C15.7031 5.46354 15.9219 5.5 16.0859 5.66406C16.25 5.8099 16.2956 6.07422 16.2227 6.45703Z" fill="white"/>
</svg>
