<svg width="126" height="190" viewBox="0 0 126 190" fill="none" xmlns="http://www.w3.org/2000/svg">
<path d="M55.3762 175.062L54.0745 178.704V181.326C54.0745 182.346 53.6407 183.802 54.5084 183.948L60.5827 184.24L65.7892 185.842C66.0784 185.988 69.694 187.153 69.9833 187.153H78.3715C78.6608 187.153 78.8054 186.862 78.8054 186.716V185.551C78.8054 184.822 78.5162 184.094 77.9377 183.657L68.9709 178.704L67.2354 175.499L67.8139 172.003L55.3762 175.062Z" fill="#3C3C3C"/>
<path d="M31.8024 174.916L30.7901 179.141L27.4637 184.968C27.1744 185.842 27.1744 186.716 27.7529 187.299L29.1992 188.901C29.4884 189.338 30.0669 189.63 30.7901 189.63H35.9966C36.5751 189.63 37.0089 189.484 37.4428 189.193L40.4799 186.57C41.0584 186.133 41.3477 185.405 41.3477 184.822C41.0584 182.2 40.7692 175.499 41.3477 171.274C42.2154 165.738 31.8024 174.916 31.8024 174.916Z" fill="#3C3C3C"/>
<path d="M31.0797 91.2968L31.369 136.02L29.7781 176.664H43.5175L46.9885 137.768L50.3148 113.149V88.6746C44.096 89.403 37.7325 90.2771 31.0797 91.2968Z" fill="#63767A"/>
<path d="M69.2601 100.475C68.9708 95.5215 68.537 90.7141 68.1031 86.1981C67.38 86.3437 66.6568 86.3437 65.9337 86.4894C60.5826 87.2178 55.3761 87.9462 50.3142 88.6746V113.149L50.7481 109.798C50.7481 109.798 54.3637 147.82 54.3637 176.519C56.2438 176.664 57.9793 176.81 59.4256 176.81C68.1031 176.956 68.1031 174.77 68.1031 174.77L69.4047 130.63C69.8386 121.161 69.8386 111.109 69.2601 100.475Z" fill="#70888D"/>
<path d="M41.9263 24.7218V25.3045V29.8205L48.579 35.502L50.7484 33.3168L54.2194 29.8205L54.364 24.1391L41.9263 24.7218Z" fill="#CEA996"/>
<path d="M43.3721 3.30715C42.6489 3.59851 41.9258 4.03554 41.0581 4.47258C40.6242 4.76393 40.1903 5.05529 39.7564 5.638C39.4672 6.22072 39.1779 6.94911 39.3226 7.6775C39.3226 8.26021 39.1779 8.9886 39.1779 9.57131C39.1779 11.1738 39.7564 12.7762 39.4672 14.3787C39.4672 14.6701 39.4672 15.5441 38.8887 15.1071C38.5994 14.9614 38.7441 14.5244 38.5994 14.3787C38.0209 14.0873 37.7317 14.6701 37.7317 15.1071C37.7317 16.4182 37.8763 18.0206 38.4548 19.1861C38.8887 19.9145 39.4672 20.2058 39.9011 20.6429C40.4796 21.2256 40.3349 22.391 40.6242 23.1194C40.7688 23.7021 40.9134 24.1391 41.2027 24.5762C41.9258 25.3046 43.0828 25.7416 43.8059 26.47C44.3844 27.1984 45.1076 27.9268 45.9753 28.5095C46.5538 28.8008 47.4216 28.8008 48.1447 28.6552C48.2893 28.6552 48.2893 28.6552 48.4339 28.8008C48.4339 27.3441 48.4339 26.0329 48.4339 24.7218C48.5786 20.3515 48.5786 16.1268 48.5786 11.7565C48.5786 11.4651 48.5786 11.0281 48.7232 10.7367C48.7232 9.27996 48.8678 7.6775 48.8678 6.22072C48.8678 5.638 48.8678 5.20097 49.0124 4.61826C49.1571 4.03554 49.1571 3.59851 48.7232 3.16147C48.4339 2.87012 47.8554 2.72444 47.4216 2.57876C45.9753 2.28741 44.6737 2.72444 43.3721 3.30715Z" fill="#E1BCA4"/>
<path d="M58.8471 15.2529C58.8471 14.6702 58.4132 14.2331 57.6901 14.5245C57.6901 14.5245 57.5455 14.6702 57.4008 14.6702C56.967 14.8158 57.1116 14.0875 57.1116 13.9418C57.1116 13.5047 57.1116 13.2134 57.2562 12.7764C57.5455 10.7369 58.8471 8.40601 57.4008 6.51219C56.6777 5.34677 55.2315 4.61838 53.9298 4.4727C53.3513 4.4727 52.7728 4.4727 52.1943 4.18134C51.4712 4.03566 50.8927 3.74431 50.1696 3.88998C49.8803 3.88998 49.0126 4.03566 48.868 4.32702C48.7233 4.4727 48.7233 4.76405 48.7233 4.90973C48.7233 6.36651 48.7233 7.67762 48.5787 8.98872C48.5787 10.7369 48.4341 28.6553 48.4341 28.801C49.1572 28.801 49.7357 28.6553 50.3142 28.5096C51.182 28.0726 51.9051 27.3442 52.6282 26.6158C53.3513 25.8874 54.5083 25.4504 55.0868 24.722C55.3761 24.2849 55.6653 23.8479 55.81 23.2652C56.0992 22.5368 55.9546 21.517 56.5331 20.9343C57.1116 20.3516 57.5455 20.2059 57.9793 19.4776C58.7025 18.1664 58.8471 16.7097 58.8471 15.2529Z" fill="#F8CFB4"/>
<path d="M38.3104 13.359C38.5997 14.0874 38.7443 14.6701 38.7443 15.3985C38.7443 15.3985 38.7443 15.5442 38.7443 15.6899H39.612C39.612 15.5442 39.612 15.3985 39.612 15.2528C39.612 14.6701 39.612 14.3788 39.7567 13.7961C39.7567 11.9022 38.8889 9.71707 39.7567 7.96893C40.4798 6.36647 41.7814 5.20105 43.3723 4.61834C45.2524 3.88994 47.5664 4.03562 49.4465 4.76401C51.6159 5.63808 52.9175 6.94919 54.2192 8.69732C54.5084 8.69732 54.653 8.55165 54.9423 8.55165C54.7977 8.55165 54.653 7.82326 54.653 7.67758C55.0869 7.09486 55.8101 8.11461 55.9547 8.40597C56.3886 9.13436 56.5332 10.1541 56.8224 11.0282C57.1117 12.0479 56.8224 13.2133 56.8224 14.2331C56.8224 14.3788 56.6778 15.2528 56.6778 15.9812C56.6778 16.1269 57.4009 15.8356 57.4009 15.8356C57.6902 15.5442 57.6902 14.6701 57.8348 14.3788C58.1241 12.3393 59.1364 10.0084 58.9918 7.96893C58.8472 5.92944 57.9794 4.03562 56.3886 2.72452C55.9547 2.28748 55.2316 1.99613 54.5084 1.70477C53.7853 1.26774 52.9175 0.830702 52.0498 0.97638C51.9052 0.97638 51.0374 0.97638 51.182 1.12206C50.7482 0.685024 49.8804 0.685024 49.3019 0.539346C46.2648 -0.189045 42.2153 1.55909 40.0459 3.45291C38.0212 5.20105 37.298 8.26029 37.5873 10.7368C37.7319 11.7566 38.0212 12.485 38.3104 13.359Z" fill="#3C3C3C"/>
<path d="M58.2689 80.8079C57.8351 76.8746 57.6904 72.9413 57.6904 68.8623C57.4012 60.85 57.4012 52.8377 55.8103 44.9711C55.2318 41.9119 54.6533 39.581 52.4839 37.3958C51.4716 36.5218 49.5914 33.4625 48.2898 33.7539C47.1328 33.7539 43.9511 38.4156 43.6618 39.2897C43.5172 39.7267 43.3726 40.0181 43.3726 40.3094C43.3726 41.1835 43.8064 41.9119 43.9511 43.223C44.2403 45.9909 44.3849 48.7587 44.5296 51.5266C45.5419 64.7833 46.8436 78.0401 48.1452 91.1511C48.1452 91.2968 49.0129 91.2968 50.3146 91.1511V80.6623V91.1511C53.4963 90.8597 59.2813 89.9857 59.8598 89.84C60.2937 87.2178 58.5582 83.5758 58.2689 80.8079Z" fill="#BCD3DF"/>
<path d="M52.4837 47.8847L49.8805 38.2699C49.8805 37.9785 49.8805 37.6872 49.8805 37.3958L50.6036 35.939C50.6036 35.939 50.6036 35.7934 50.459 35.6477C50.1697 35.3563 49.8805 35.065 49.5912 34.6279C49.302 34.4823 49.1574 34.1909 49.0127 33.8996C48.8681 33.7539 48.5789 33.3168 48.4342 33.4625C48.145 33.6082 48.145 33.8996 48.0004 34.0452C47.8557 34.1909 47.5665 34.4823 47.4219 34.6279C47.2772 34.9193 46.988 35.065 46.8434 35.3563C46.6987 35.502 46.6987 35.502 46.6987 35.6477L47.5665 37.2502C47.7111 37.5415 47.8557 37.8329 47.8557 38.1242L46.6987 47.3019C46.6987 47.3019 46.6987 47.3019 46.6987 47.4476L49.8805 54.7315C49.8805 54.7315 50.0251 54.8772 50.1697 54.8772C50.1697 54.8772 50.3144 54.8772 50.3144 54.7315L52.4837 48.0303V47.8847Z" fill="#485F78"/>
<path d="M68.8265 81.6822C67.6695 68.7168 68.3926 59.5391 67.5249 58.0823C67.6695 58.0823 67.8141 58.0823 67.9587 58.0823C68.6819 58.3736 69.5496 58.228 70.2727 57.6453C72.2975 55.7514 71.719 51.3811 71.5744 48.9046C71.5744 48.0305 71.5744 47.1564 71.2851 46.2824C71.1405 45.554 70.8512 45.1169 70.7066 44.3885C70.7066 44.0972 70.7066 43.9515 70.7066 43.6601C70.4174 41.912 70.4174 40.3095 69.5496 38.5614C69.1157 37.6873 68.6819 36.6676 68.1034 35.6478C67.9587 35.3565 67.8141 34.6281 67.5249 34.3367C67.3802 34.3367 66.8017 34.1911 65.934 34.0454C65.2109 33.8997 64.0539 33.754 62.7522 33.4627C61.5952 33.1713 60.4382 33.0256 58.992 32.7343C58.8474 32.5886 58.7027 32.5886 58.5581 32.5886C58.4135 32.5886 58.4135 32.5886 58.4135 32.5886C58.2689 32.5886 58.1242 32.4429 57.9796 32.4429C57.9796 32.5886 57.9796 32.5886 57.9796 32.7343C56.8226 32.0059 55.8102 30.8405 55.3763 30.6948C55.2317 30.6948 55.2317 30.6948 55.2317 30.6948L55.0871 30.8405C55.0871 30.6948 54.9425 30.6948 54.7978 30.6948C54.6532 30.5491 54.6532 30.5491 54.6532 30.5491L52.4838 39.7268L49.4467 53.1292V53.2749C49.4467 53.2749 49.1575 52.6922 49.1575 52.4008C50.7483 57.0625 49.5913 63.4724 50.3145 68.2798C51.0376 73.3785 50.7483 81.3908 50.893 88.529C51.0376 92.7537 51.1822 96.8327 51.9053 99.7463C52.1946 99.7463 52.3392 99.7463 52.4838 99.7463V99.8919C67.3802 99.3092 70.7066 97.7068 70.8512 97.7068C70.1281 93.7735 69.6942 89.9858 69.2604 86.4895C69.1157 84.8871 68.9711 83.2846 68.8265 81.6822Z" fill="#789098"/>
<path d="M54.3636 27.6354L48.5786 33.1712C48.5786 33.3169 48.434 33.3169 48.2894 33.1712L41.7812 26.7614L39.178 31.5687L44.2399 40.4551L48.2894 33.7539C48.434 33.6082 48.5786 33.6082 48.7232 33.7539L53.9297 41.3292L55.9545 32.1514L54.3636 27.6354Z" fill="#E7F5FD"/>
<path d="M51.7606 67.1143L50.6036 64.9291C50.459 65.3661 50.459 65.8031 50.459 66.3859L51.7606 67.1143Z" fill="#789098"/>
<path d="M60.1487 35.7935C60.0041 35.2107 59.8594 33.6083 58.9917 32.7342C57.4008 31.1318 55.8099 29.9663 55.3761 29.8206L51.9051 42.349L49.5911 51.5267L50.3142 64.3464L50.6034 64.9291C50.7481 61.4328 51.4712 57.2082 53.0621 52.2551C55.0868 46.5736 57.6901 42.0576 59.8594 39.1441C58.7024 38.5613 57.6901 37.9786 56.5331 37.3959L60.1487 35.7935Z" fill="#6C8287"/>
<path d="M22.1129 93.4819L20.0881 94.0646V95.3758L23.1253 95.0844L22.1129 93.4819Z" fill="#813E32"/>
<path d="M29.9226 97.8523C29.9226 96.8326 29.1994 95.8128 28.3317 95.8128L27.7532 95.6672L23.1252 95.0845V94.9388C23.1252 94.2104 22.6913 93.6277 22.1128 93.482C21.5343 93.482 21.1004 93.919 21.1004 94.6474V94.7931L10.1089 93.1906V93.045C10.1089 92.4622 9.67505 91.8795 9.09655 91.7339C8.66267 91.7339 8.22879 92.1709 8.22879 92.8993L4.03467 92.3166H3.45617C2.73304 92.1709 0.274414 92.7536 0.274414 93.7734L2.15454 103.825L2.73304 103.971V113.731C2.73304 114.751 3.31154 115.625 4.03467 115.771L25.1499 120.432C25.8731 120.578 28.6209 119.558 28.6209 118.539L28.9102 108.778L29.6333 108.341L29.9226 97.8523Z" fill="#813E32"/>
<path d="M9.09623 91.7339L6.78223 92.3166C6.78223 92.3166 7.2161 94.0647 7.36073 93.919C7.50535 93.919 10.1086 93.1906 10.1086 93.1906L9.09623 91.7339Z" fill="#813E32"/>
<path d="M27.0295 98.2894L26.5957 118.976C26.5957 119.995 25.8725 120.578 25.1494 120.432L2.15401 116.062C1.43089 115.916 0.852389 115.042 0.852389 114.168L0.707764 94.5017C0.707764 93.482 1.28626 92.7536 2.00939 92.8993L25.5833 96.1042C26.451 96.2499 27.0295 97.2696 27.0295 98.2894Z" fill="#62332D"/>
<path d="M20.0881 94.0647C19.5096 93.919 19.0757 94.5017 19.0757 95.0844V96.2498C19.0757 96.9782 19.5096 97.5609 19.9434 97.7066C20.5219 97.7066 20.9558 97.2696 20.9558 96.5412V95.3758C20.9558 94.7931 20.5219 94.0647 20.0881 94.0647Z" fill="#B08A65"/>
<path d="M7.07161 92.1709C6.63773 92.1709 6.20386 92.6079 6.20386 93.3363V94.5017C6.20386 95.0844 6.63773 95.6671 7.07161 95.8128C7.65011 95.8128 8.08398 95.3758 8.08398 94.7931V93.6277C8.08398 92.8993 7.65011 92.3165 7.07161 92.1709Z" fill="#B08A65"/>
<path d="M27.753 98.435L27.4638 108.778L0.274264 104.262L0.129639 94.356C0.129639 93.3362 0.852764 92.6078 1.57589 92.7535L26.1622 96.2498C27.0299 96.3955 27.753 97.2695 27.753 98.435Z" fill="#6C392E"/>
<path d="M16.1829 104.408L10.8318 103.534V106.01L16.0383 106.884L16.1829 104.408Z" fill="#C59D71"/>
<path d="M10.8318 106.01V108.924L16.0383 109.798V106.884L10.8318 106.01Z" fill="#B08A65"/>
<path d="M27.4638 108.778L29.6332 108.341L28.9101 108.778V109.215L26.7407 109.652L26.8853 108.778H27.4638Z" fill="#62332D"/>
<path d="M8.08374 92.3166C8.08374 92.3166 8.66224 88.092 14.4472 87.6549C20.6661 87.5092 22.1124 89.2574 22.1124 93.482C21.1 94.7932 20.0876 94.0648 20.0876 94.0648C20.0876 94.0648 22.8355 88.529 14.8811 88.966C12.2779 89.4031 10.8316 89.4031 8.95149 92.608C8.22837 92.8993 8.08374 92.3166 8.08374 92.3166Z" fill="#813E32"/>
<path d="M19.6539 84.887C19.9432 85.4697 20.377 86.1981 20.5217 87.2179C20.6663 88.2376 20.5217 89.1117 20.377 89.5487C19.6539 90.8598 19.22 91.8796 18.4969 93.3363C18.3523 93.3363 18.063 93.482 17.6292 93.3363C17.0507 93.3363 16.7614 93.045 16.7614 92.8993C16.6168 92.8993 16.3275 93.045 15.8937 93.045C15.1705 92.8993 14.7367 92.608 14.7367 92.4623C14.4474 92.4623 14.0135 92.608 13.435 92.4623C12.8565 92.4623 12.5673 92.1709 12.278 92.0252C12.278 92.0252 11.9888 92.1709 11.5549 92.1709C11.2657 92.1709 10.9764 91.8796 10.8318 91.5882C10.9764 90.4228 10.9764 88.966 11.5549 87.2179C12.1334 85.6154 12.7119 84.3043 13.435 83.2845L19.6539 84.887Z" fill="#E1BCA4"/>
<path d="M51.3267 73.9611C50.8928 69.008 50.8928 64.055 49.7358 59.1019C49.1573 56.7711 49.8805 54.4402 49.302 51.9637C48.4342 48.3217 44.3847 39.8724 43.8062 39.2897C41.4922 37.1045 39.6121 34.3366 38.3104 31.5687C37.0088 31.8601 35.8518 32.1514 34.5502 32.5885C31.8023 33.1712 28.7652 33.0255 26.3066 34.9193C24.7157 36.0848 18.9307 58.3735 17.4844 63.6179C15.4597 71.6302 12.1333 84.3042 12.1333 84.3042L21.5339 88.8203C21.5339 88.8203 26.0173 71.1932 27.1743 68.2796C29.4883 62.1611 30.7899 59.976 31.8023 54.2945C32.2362 57.7908 32.5254 66.3858 32.2362 70.0278C31.8023 74.9808 31.8023 80.0796 31.5131 85.0326C31.5131 86.0524 30.6453 99.4548 29.9222 99.3091L50.3143 100.329V80.6623V100.329H52.4837C52.4837 100.329 52.6283 86.9264 51.3267 73.9611Z" fill="#6C8287"/>
<path d="M62.3184 59.2477L60.4382 67.1143C60.4382 67.1143 61.7399 67.26 61.8845 66.8229C62.0291 66.2402 63.0415 59.6847 63.0415 59.6847L62.3184 59.2477Z" fill="#65797C"/>
<path d="M63.0415 59.6846L61.8845 47.5933L62.463 59.9759L63.0415 59.6846Z" fill="#65797C"/>
<path d="M73.3098 54.1488L73.1652 54.0031C72.442 50.0698 71.8635 46.1365 70.9958 42.3489C70.5619 40.7464 70.2727 39.1439 69.8388 37.5415C69.5495 36.5217 69.1157 35.065 67.9587 34.6279C65.7893 33.7539 66.8017 37.6872 66.9463 38.5612C67.0909 41.1834 67.5248 43.66 67.6694 46.2822C67.9587 50.2155 67.814 54.2945 66.2232 57.7908C65.0662 60.413 63.0414 62.5981 62.4629 65.366C62.1737 67.1142 62.3183 68.8623 63.0414 70.4648C63.4753 71.3388 63.9092 72.0672 64.7769 72.3586C65.5 72.6499 66.3678 72.3586 66.9463 71.9216C69.9834 70.6104 72.442 67.6969 73.3098 64.492C74.3222 61.1414 73.8883 57.4994 73.3098 54.1488Z" fill="#789098"/>
<path d="M50.3146 54.7316C50.3146 53.8576 50.0254 52.8378 49.7361 52.1094L46.1205 42.4947C46.1205 42.4947 40.914 32.4429 40.0462 29.8206C39.0339 30.2577 39.3231 30.8404 38.3107 31.2774C37.443 32.4429 36.5752 34.191 36.1414 35.3564C37.1537 35.7935 41.0586 36.2305 41.2032 36.0848C41.0586 36.0848 37.1537 39.7268 37.1537 39.7268C40.7694 44.2428 44.5296 47.8847 47.5667 55.897C48.7237 58.8106 50.3146 65.3661 50.8931 67.9883C50.8931 64.7834 50.4592 58.5193 50.3146 54.7316Z" fill="#789098"/>
<path d="M55.6656 65.9488C58.1242 64.6377 60.5828 63.6179 67.2356 63.1809C73.5991 62.7439 79.9626 63.7636 82.4212 64.9291C82.5659 65.2204 83.1444 68.2797 80.975 70.6105C79.6733 71.7759 78.2271 72.213 77.6486 72.213C73.8883 71.4846 68.9711 70.7562 63.1861 70.9019C58.2688 71.0475 57.4011 70.1735 54.0747 71.0475C54.9425 69.2994 54.9425 67.6969 55.6656 65.9488Z" fill="#96989B"/>
<path d="M56.0994 65.8031C59.1365 64.9291 62.8968 63.4723 67.2355 63.1809C73.3098 62.7439 78.5163 64.055 82.4212 64.9291C81.9873 64.9291 79.8179 65.2204 78.227 67.1142C76.6362 69.2994 76.9254 71.6303 76.9254 72.0673C74.3222 71.3389 71.1404 70.7562 67.5248 70.4648C61.5952 69.8821 57.9795 70.3192 54.0746 71.0475C53.93 70.6105 53.7854 69.7364 53.93 68.7167C54.3639 66.8229 55.8101 65.9488 56.0994 65.8031Z" fill="#F2F3F2"/>
<path d="M58.8474 67.4057C58.1243 69.0081 58.8474 71.776 60.8722 72.3587C61.5953 72.5044 62.4631 72.3587 63.1862 72.3587C64.3432 72.5044 65.6448 72.6501 66.8018 72.5044C67.525 72.3587 70.2728 71.4846 69.2605 70.7563C68.5373 70.1735 67.0911 71.1933 66.368 70.1735C65.7895 69.1538 66.0787 67.8427 66.368 66.8229C66.5126 66.3859 67.3803 63.0353 66.368 63.3267C65.9341 63.3267 65.211 63.7637 65.211 64.2007C65.211 63.9094 65.211 63.4723 64.9217 63.3267C64.7771 63.181 64.3432 63.181 64.054 63.3267C63.9093 63.618 63.6201 63.9094 63.4755 64.2007C63.7647 63.7637 63.4755 63.3267 63.0416 63.3267C62.897 63.3267 62.6077 63.4723 62.4631 63.4723C61.8846 64.0551 61.74 64.9291 61.5953 65.6575C61.3061 66.3859 61.0168 67.1143 60.8722 67.8427C61.0168 67.1143 61.0168 66.3859 61.1615 65.5118C61.3061 65.2205 61.3061 64.6378 61.3061 64.3464C61.3061 64.0551 61.3061 64.0551 61.1615 64.0551C61.0168 64.0551 60.8722 64.2007 60.7276 64.2007C60.583 64.3464 60.4383 64.4921 60.2937 64.7834C59.7152 65.6575 59.2813 66.3859 58.8474 67.4057Z" fill="#E1BCA4"/>
<path d="M31.224 82.8476H40.7692L39.323 89.1118L29.9224 87.655L31.224 82.8476Z" fill="#65797C"/>
<path d="M68.8264 81.6821L62.4629 82.8475L63.6199 86.7808L63.7645 87.3635L63.9091 87.6549L68.2479 86.7808L69.2603 86.4895C69.1156 84.887 68.971 83.2846 68.8264 81.6821Z" fill="#70888D"/>
<path d="M40.0463 29.8206C40.0463 29.8206 39.757 51.0897 47.5668 63.4723C52.7733 59.2476 59.8599 37.6873 58.4136 31.7145C61.3061 32.4429 61.1615 32.7342 61.1615 32.7342C61.1615 32.7342 56.9674 56.4798 48.1453 65.5118C44.0958 63.0353 37.2984 40.4552 38.4554 30.4034C39.1785 30.4034 40.0463 29.8206 40.0463 29.8206Z" fill="#EF5050"/>
<path d="M42.0708 71.3389H53.3516V63.3266H42.0708V71.3389Z" fill="#474A50"/>
<path d="M42.6494 70.902H52.7732V63.7638H42.6494V70.902Z" fill="#FEFEFE"/>
<path d="M46.2649 64.0549H49.4466V62.0154H46.2649V64.0549Z" fill="#474A50"/>
<path d="M43.9509 65.9488H51.1822V65.5117H43.9509V65.9488Z" fill="#BFC0C1"/>
<path d="M43.9509 67.1143H51.1822V66.6772H43.9509V67.1143Z" fill="#BFC0C1"/>
<path d="M43.9509 68.2797H51.1822V67.8427H43.9509V68.2797Z" fill="#BFC0C1"/>
<path d="M43.9509 69.445H51.1822V69.008H43.9509V69.445Z" fill="#BFC0C1"/>
<path d="M93.2681 9.86268C93.4127 9.717 93.5573 9.42565 93.7019 9.27997C93.5573 9.42565 93.4127 9.717 93.2681 9.86268Z" fill="#3C3A37"/>
<path d="M113.516 18.4577C112.648 14.5244 110.768 10.7368 107.731 8.11458C105.272 6.07509 102.235 4.61831 99.198 5.3467C96.3055 5.92941 93.8468 7.9689 92.1113 10.1541C90.2312 12.6306 89.942 15.8355 89.7973 18.8948C89.3635 23.7022 90.3758 28.6552 92.6898 32.8799C93.413 34.3367 94.2807 36.3762 96.0162 36.8132C98.6195 37.8329 101.657 37.2502 104.549 37.2502C105.417 37.2502 111.636 37.1045 111.636 37.5416C113.516 31.4231 114.817 24.8676 113.516 18.6034C113.516 18.4577 113.516 18.4577 113.516 18.4577Z" fill="#61544D"/>
<path d="M107.441 34.7737C107.441 34.7737 106.14 31.7144 106.574 28.2182C107.008 25.4503 95.7269 29.2379 95.7269 29.2379C95.7269 29.2379 96.1607 31.8601 95.7269 34.0453C95.293 36.3761 101.078 40.7465 101.078 40.7465L104.983 38.707L105.561 39.2897L107.441 34.7737Z" fill="#DEB19F"/>
<path d="M97.7516 15.3985C97.0284 14.8158 94.5698 13.6504 94.5698 12.7763C94.4252 14.6702 93.4128 15.8356 92.545 17.438C92.2558 18.0208 91.9665 18.6035 91.5327 19.0405C91.388 19.6232 91.0988 20.0602 90.9542 20.4973C90.8095 20.7886 90.8095 21.08 90.9542 21.517C90.9542 22.0997 91.388 24.7219 92.545 24.7219C92.8343 24.8676 92.9789 25.159 92.9789 25.4503C93.4128 27.6355 94.859 29.0923 96.4499 30.5491C96.5946 30.6948 96.7392 30.6948 96.7392 30.8404C98.0408 31.8602 99.1978 32.4429 100.355 32.2972V16.7096C99.3424 16.2726 98.4747 15.8356 97.7516 15.3985Z" fill="#E1BCA4"/>
<path d="M104.549 19.3318C103.103 18.6034 100.355 16.5639 100.355 16.7096V32.2972C101.512 32.4428 102.669 31.8601 103.826 30.8404C103.97 30.6947 104.115 30.6947 104.115 30.549C105.85 29.0922 107.297 27.6355 107.586 25.4503C107.731 25.1589 107.875 24.8676 108.164 24.7219C109.032 24.7219 109.466 23.1194 109.611 22.0997C108.164 20.9343 106.14 20.3516 104.549 19.3318Z" fill="#F8CFB4"/>
<path d="M106.574 43.8056C105.417 42.2032 103.537 40.455 101.512 40.018C99.487 40.455 97.6069 42.2032 96.4499 43.8056C96.3053 44.097 96.1606 44.3884 96.3053 44.6797L101.367 56.4796C101.367 56.6253 101.512 56.6253 101.512 56.771C101.512 56.6253 101.656 56.6253 101.656 56.4796L106.718 44.6797C106.863 44.3884 106.718 44.097 106.574 43.8056Z" fill="#E8E7E8"/>
<path d="M100.5 144.906C100.355 145.781 100.355 146.655 100.355 147.529C100.066 151.608 98.7644 155.395 98.4751 159.329C97.752 166.467 97.4627 173.751 97.3181 181.035C97.3181 181.763 97.3181 182.637 97.3181 183.511C97.3181 184.531 97.3181 185.696 96.7396 186.57C95.8719 188.319 92.8347 188.173 91.5331 187.007C90.3761 185.696 90.5207 183.366 90.6654 181.763C90.81 181.035 91.0992 180.161 91.2439 179.287C91.3885 178.704 91.3885 178.121 91.5331 177.538C91.967 172.731 91.2439 168.215 90.9546 163.408C90.5207 158.018 89.653 152.773 89.0745 147.383C88.3514 140.099 89.5084 133.252 90.5207 126.114C90.81 124.803 90.81 123.637 90.81 122.326C90.6654 118.539 90.0869 114.751 91.967 111.4C93.7025 108.05 97.752 107.321 100.5 110.235C104.115 114.314 100.5 120.287 99.9214 124.657C99.3429 128.445 100.211 132.087 100.211 135.874C100.211 138.934 100.5 141.847 100.5 144.906Z" fill="#DEB19F"/>
<path d="M97.3173 181.035C97.3173 183.365 98.1851 185.696 95.8711 187.59C94.1356 189.193 91.3877 187.736 90.3753 185.988C89.6522 184.822 90.3753 182.928 90.6646 181.617C90.9538 180.015 91.3877 178.558 91.5323 177.101C91.5323 177.393 91.8216 178.995 91.8216 179.286C91.8216 180.161 91.9662 180.889 92.1108 181.617C92.4001 182.928 92.5447 184.385 93.991 184.239C95.0033 184.239 97.3173 182.054 97.3173 181.035Z" fill="#3D3D3D"/>
<path d="M101.946 144.906C101.946 145.781 101.946 146.655 102.09 147.529C102.38 151.608 103.537 155.395 103.97 159.329C104.549 166.467 104.983 173.751 104.983 181.035C104.983 181.763 104.983 182.637 104.983 183.511C104.983 184.531 104.983 185.696 105.561 186.57C106.429 188.319 109.466 188.173 110.768 187.007C112.069 185.696 111.78 183.366 111.636 181.763C111.491 181.035 111.346 180.161 111.057 179.287C111.057 178.704 110.912 178.121 110.768 177.538C110.334 172.731 111.057 168.215 111.491 163.408C111.78 158.018 112.793 152.773 113.226 147.383C113.95 140.099 112.937 133.252 111.78 126.114C111.636 124.803 111.491 123.637 111.491 122.326C111.636 118.539 112.214 114.751 110.334 111.4C108.598 108.05 104.549 107.321 101.946 110.235C98.1854 114.314 101.801 120.287 102.524 124.657C102.958 128.445 102.09 132.087 102.09 135.874C102.09 138.934 101.801 141.847 101.946 144.906Z" fill="#E9C3B2"/>
<path d="M104.983 181.035C104.983 183.365 104.26 185.696 106.429 187.59C108.165 189.193 110.913 187.736 111.925 185.988C112.648 184.822 111.925 182.928 111.78 181.617C111.491 180.015 110.913 178.558 110.768 177.101C110.768 177.393 110.479 178.995 110.479 179.286C110.479 180.161 110.334 180.889 110.189 181.617C109.9 182.928 109.611 184.385 107.442 184.677C106.429 184.677 105.128 182.054 104.983 181.035Z" fill="#3D3D3D"/>
<path d="M76.3471 94.9389L78.3718 92.0253L77.5041 91.734C77.0702 91.5883 76.6363 91.8796 76.3471 92.171L76.0578 92.4624L75.9132 92.3167C75.9132 93.0451 75.9132 93.9191 75.7686 94.7932L76.3471 94.9389Z" fill="#DEB19F"/>
<path d="M77.6485 95.8128H76.3469V96.9782L78.2271 97.2696L77.6485 95.8128Z" fill="#61696F"/>
<path d="M81.9874 101.057C81.9874 100.183 81.5535 99.1634 81.1196 99.0178L80.8304 98.7264L78.2271 97.2696C78.2271 96.6869 77.9379 96.1042 77.6486 95.8128C77.3594 95.6672 77.0701 95.9585 77.0701 96.5412V96.6869L70.562 93.045C70.562 92.4623 70.2727 91.8795 69.9835 91.5882C69.6942 91.4425 69.405 91.7339 69.405 92.3166V92.4623L66.9463 91.0055L66.5125 90.8598C66.0786 90.7141 65.6447 91.1511 65.6447 92.0252L65.3555 100.766L65.6447 101.057L65.3555 109.944C65.3555 110.963 65.6447 111.837 66.2232 112.129L79.2395 120.141C79.6734 120.432 81.2642 119.85 81.2642 118.976L81.4089 110.235L81.8427 110.089L81.9874 101.057Z" fill="#61696F"/>
<path d="M69.9831 91.5881H68.5369C68.5369 91.5881 68.8261 93.1906 68.9707 93.1906L70.5616 93.0449L69.9831 91.5881Z" fill="#61696F"/>
<path d="M80.3967 100.912L80.1075 118.976C80.1075 119.85 79.6736 120.432 79.2397 120.141L64.9219 112.129C64.488 111.837 64.1987 110.963 64.1987 109.944L64.7772 92.1709C64.7772 91.2968 65.2111 90.8598 65.645 91.0055L79.529 98.7264C80.1075 99.0178 80.3967 99.8918 80.3967 100.912Z" fill="#474A50"/>
<path d="M76.3471 95.8129C76.0578 95.6672 75.7686 95.9585 75.7686 96.5412V97.561C75.7686 98.1437 76.0578 98.7264 76.3471 99.0178C76.6363 99.1634 76.9256 98.7264 76.9256 98.1437V97.2696C76.9256 96.6869 76.7809 96.1042 76.3471 95.8129Z" fill="#9A9B9C"/>
<path d="M68.8264 91.5881C68.5371 91.4425 68.2479 91.7338 68.2479 92.3165L68.1033 93.3363C68.1033 93.919 68.3925 94.5017 68.6818 94.6474C68.971 94.9387 69.2603 94.5017 69.2603 93.919V93.0449C69.4049 92.4622 69.1156 91.8795 68.8264 91.5881Z" fill="#9A9B9C"/>
<path d="M80.686 101.057L80.5414 110.089L64.1987 100.766L64.488 92.0252C64.488 91.1511 64.9219 90.7141 65.3557 90.8598L79.9629 99.0178C80.3967 99.1634 80.8306 100.183 80.686 101.057Z" fill="#50555A"/>
<path d="M74.0332 103.971L70.8514 102.223L70.7068 104.554L73.8885 106.302L74.0332 103.971Z" fill="#B2B2B2"/>
<path d="M70.7068 104.554V107.03L73.8885 108.778V106.302L70.7068 104.554Z" fill="#9A9B9C"/>
<path d="M80.541 110.089H81.8426L81.4087 110.235V110.526H80.2517V109.798L80.541 110.089Z" fill="#474A50"/>
<path d="M69.4053 91.8796C69.4053 91.8796 69.8391 88.529 73.1655 89.403C76.7812 90.5685 77.6489 92.3166 77.6489 95.8129C77.0704 96.6869 76.3473 95.8129 76.3473 95.8129C76.3473 95.8129 78.0828 91.8796 73.4548 90.5685C72.0085 90.2771 71.1408 90.1314 69.8391 92.4623C69.4053 92.4623 69.4053 91.8796 69.4053 91.8796Z" fill="#61696F"/>
<path d="M80.8304 82.7019L75.7686 84.45L72.2976 88.092L72.0083 92.0253C72.0083 92.3166 72.2976 92.608 72.5868 92.7537L75.7686 94.7932C75.9132 93.9191 75.9132 93.045 75.9132 92.3166C75.9132 92.0253 75.7686 91.7339 75.6239 91.4426C75.4793 91.0055 75.4793 91.0055 75.7686 90.7142C76.0578 90.2771 76.4917 89.8401 77.0702 89.4031C77.2148 89.4031 77.3594 89.2574 77.5041 89.2574C77.6487 89.1117 77.7933 89.1117 77.9379 89.2574C78.3718 89.5487 78.2272 90.2771 78.2272 90.5685C78.2272 91.0055 78.3718 91.5882 78.3718 92.0253L77.9379 93.7734C77.9379 94.0648 77.9379 94.3561 78.0826 94.5018L78.8057 94.9388L80.3966 91.8796L80.2519 87.5093L80.8304 82.7019Z" fill="#DEB19F"/>
<path d="M101.656 55.0229C101.512 55.0229 101.512 55.0229 101.512 55.1686C101.512 55.1686 101.512 55.1686 101.512 55.3143C101.078 53.7118 100.644 52.255 100.21 50.7982C98.6193 45.6995 97.0284 40.6008 95.4376 35.502C96.0161 37.1045 88.6402 38.5613 88.0617 38.7069C84.7353 39.8724 82.7105 40.7464 81.6982 44.2427C80.6858 47.8847 79.6734 60.5587 80.2519 64.7833C78.2272 68.4253 72.4422 83.5758 72.7314 84.1585C75.0454 85.0326 77.504 87.0721 80.2519 87.5091C80.6858 86.9264 86.9047 73.9611 88.4956 67.2599C89.3633 63.3266 88.6402 58.5192 88.9294 57.3537C88.7848 57.9365 89.2187 59.1019 89.5079 59.6846C89.9418 61.2871 90.3757 62.7438 90.3757 64.3463C90.5203 65.9488 90.2311 67.5512 89.9418 69.008C89.6525 69.8821 89.3633 70.6105 89.0741 71.3389C87.3385 74.6895 85.7477 77.7487 84.7353 81.3907C80.2519 96.9782 89.3633 110.672 89.6525 125.968C93.7021 126.114 97.6069 126.114 101.512 125.968H101.656V54.7315C101.656 54.8772 101.656 54.8772 101.656 55.0229Z" fill="#6C8287"/>
<path d="M114.962 38.7069C113.66 38.4156 112.503 38.4156 111.057 37.8329C110.768 37.6872 107.731 35.7934 107.731 35.502C106.14 40.6008 104.549 45.6995 103.103 50.7982C102.524 52.255 102.09 53.7118 101.657 55.3143C101.657 55.1686 101.657 55.1686 101.657 55.1686C101.657 55.0229 101.657 55.0229 101.657 55.0229C101.512 54.8772 101.512 54.8772 101.512 54.7315V125.968C101.512 125.968 101.512 125.968 101.657 125.968C105.561 126.114 109.466 126.114 113.516 125.968C113.805 110.672 122.916 96.9782 118.433 81.3907C117.421 77.7487 115.83 74.6895 114.239 71.3389C113.805 70.6105 113.516 69.8821 113.227 69.008C112.793 67.5512 112.503 65.9488 112.503 64.3463C112.359 61.4327 113.082 58.3735 114.528 56.0426C114.673 56.0426 114.673 56.1883 114.817 56.334C114.817 50.3612 113.95 44.3884 114.962 38.7069Z" fill="#789098"/>
<path d="M113.226 69.0081C112.792 67.5513 112.503 65.9489 112.503 64.3464H90.3755C90.5202 65.9489 90.2309 67.5513 89.9417 69.0081H113.226Z" fill="#485F78"/>
<path d="M104.26 51.9638L102.524 43.8058C102.38 43.6601 102.38 43.3687 102.524 43.0774L103.247 41.912C103.247 41.7663 103.247 41.6206 103.247 41.6206C102.958 41.3292 102.669 41.0379 102.38 40.8922C102.235 40.7465 102.09 40.4552 101.946 40.3095C101.801 40.1638 101.656 39.7268 101.367 39.8725C101.223 40.0181 101.223 40.3095 101.078 40.4552C100.933 40.6009 100.644 40.7465 100.499 40.8922C100.355 41.1836 100.066 41.3292 99.7763 41.6206C99.7763 41.6206 99.7763 41.7663 99.7763 41.912L100.499 43.0774C100.644 43.3687 100.644 43.6601 100.499 43.8058L98.7639 51.9638L101.223 58.3736C101.367 58.3736 101.367 58.5193 101.512 58.3736C101.656 58.5193 101.801 58.3736 101.801 58.3736L104.26 51.9638Z" fill="#485F78"/>
<path d="M108.599 37.9786L107.297 34.1909L106.285 36.0847C104.983 37.8329 102.38 39.581 101.512 39.581C100.644 39.581 98.0409 37.8329 96.7393 36.0847L95.7269 34.1909L94.4253 37.9786V38.1242L96.8839 45.9909C96.8839 46.1365 97.1732 47.4476 97.3178 46.1365L98.6194 43.66C98.764 43.3686 99.0533 43.223 99.1979 42.9316L101.512 40.018L103.826 42.9316C103.971 43.223 104.26 43.3686 104.404 43.66L105.706 46.1365C105.851 47.4476 106.14 46.1365 106.285 45.9909L108.599 38.1242V37.9786Z" fill="#FEFEFE"/>
<path d="M101.512 54.8772L98.9087 46.4279L95.2931 35.502L93.5576 36.8131C92.6899 37.3958 91.9667 42.0575 91.6775 43.0773L94.7146 42.7859L92.5452 46.7192C92.256 47.0106 100.789 58.6648 101.512 61.2871C101.512 61.2871 101.512 61.1414 101.657 61.1414V54.5859L101.512 54.8772Z" fill="#789098"/>
<path d="M108.309 42.7859L111.346 43.0773C111.057 42.0575 110.334 37.3958 109.466 36.8131L107.731 35.502L104.115 46.4279L101.656 54.5859V61.1414C103.103 57.7908 110.768 47.0106 110.478 46.7192L108.309 42.7859Z" fill="#6C8287"/>
<path d="M94.859 35.7933C94.859 35.7933 86.4707 46.8649 93.8466 62.5981C97.3176 61.287 113.082 41.4748 110.623 37.3958C113.949 37.8328 113.66 38.4155 113.66 38.4155C113.66 38.4155 104.549 59.1018 94.2805 64.2006C89.6525 58.8105 85.603 49.7784 92.4004 37.5415C93.1235 37.1044 94.859 35.7933 94.859 35.7933Z" fill="#EF5050"/>
<path d="M97.1732 72.7956L86.0371 69.7363L88.2065 61.8697L99.198 64.7833L97.1732 72.7956Z" fill="#474A50"/>
<path d="M96.5948 72.0672L86.7603 69.445L88.6404 62.4525L98.4749 65.0747L96.5948 72.0672Z" fill="#FEFEFE"/>
<path d="M95.148 64.6376L92.1108 63.7635L92.6893 61.8697L95.7265 62.5981L95.148 64.6376Z" fill="#474A50"/>
<path d="M96.3053 66.8229L89.3633 65.0748L89.5079 64.6378L96.4499 66.5316L96.3053 66.8229Z" fill="#BFC0C1"/>
<path d="M96.0157 67.9882L89.0737 66.0944L89.2184 65.8031L96.1604 67.5512L96.0157 67.9882Z" fill="#BFC0C1"/>
<path d="M95.7267 69.1537L88.7847 67.2599L88.9293 66.8228L95.8713 68.7167L95.7267 69.1537Z" fill="#BFC0C1"/>
<path d="M95.4374 70.3191L88.4954 68.4253L88.64 67.9883L95.582 69.8821L95.4374 70.3191Z" fill="#BFC0C1"/>
<path d="M98.6196 52.6921L101.512 74.6895L114.962 72.2129L112.504 50.3612L98.6196 52.6921Z" fill="#307ABD"/>
<path d="M98.1855 53.1291L101.078 75.1265L114.528 72.6499L112.214 50.7982L98.1855 53.1291Z" fill="#FEFEFE"/>
<path d="M98.6196 53.8575L101.512 75.8549L114.962 73.3784L112.504 51.5266L98.6196 53.8575Z" fill="#307ABD"/>
<path d="M102.813 72.3587C101.946 72.5043 101.078 72.7957 100.355 72.0673C99.487 71.3389 99.0532 70.4648 99.0532 69.4451C98.9085 68.8624 98.7639 68.134 98.7639 67.5513C98.9085 67.2599 99.0532 66.8229 99.1978 66.5315C99.487 65.5118 99.7763 64.3464 101.223 64.6377C101.223 64.055 100.644 63.618 100.499 63.0353C100.355 62.4525 100.355 61.7242 100.499 61.1414C100.644 60.9958 100.933 60.8501 100.933 60.7044C101.367 61.2871 101.367 62.0155 101.946 62.5982C102.524 63.1809 103.392 63.3266 103.97 63.7636C105.272 64.7834 107.008 65.3661 107.297 67.1142C107.586 67.697 107.731 68.2797 107.731 69.0081C107.731 69.5908 107.586 70.1735 107.152 70.7562C106.14 72.213 104.404 72.213 102.813 72.3587Z" fill="#DEB19F"/>
<path d="M124.218 56.334C123.784 53.5661 123.35 50.7983 122.482 47.8847C121.615 45.1168 119.735 40.7465 116.842 39.2897C116.264 38.9983 115.54 38.707 114.962 38.707C114.528 41.6205 114.383 44.5341 114.528 47.4477C114.528 49.9242 113.95 52.255 113.95 54.7316C113.95 55.6056 114.094 56.4797 114.673 57.3538C115.107 58.3735 115.685 60.1217 115.83 61.2871C115.974 62.5982 114.817 63.1809 113.66 63.4723C112.359 63.9093 111.202 64.492 109.9 64.7834C108.743 65.0747 107.586 64.929 106.574 65.2204C106.718 66.3858 107.297 72.9413 105.561 72.9413C109.177 73.087 113.082 72.7957 116.553 71.4846C119.301 70.6105 122.338 69.1537 124.218 66.9685C126.243 64.2007 124.652 59.539 124.218 56.334Z" fill="#789098"/>
</svg>
