<svg width="22" height="22" viewBox="0 0 22 22" fill="none" xmlns="http://www.w3.org/2000/svg">
<circle cx="11" cy="11" r="11" fill="#00A52E"/>
<path d="M15.418 6.40234C14.8346 5.83724 14.1693 5.39974 13.4219 5.08984C12.6927 4.77995 11.9271 4.625 11.125 4.625C10.0312 4.625 9.01953 4.89844 8.08984 5.44531C7.16016 5.99219 6.42188 6.73047 5.875 7.66016C5.32812 8.58984 5.05469 9.60156 5.05469 10.6953C5.05469 11.7891 5.32812 12.8008 5.875 13.7305L5 16.875L8.22656 16.0273C9.11979 16.5195 10.0859 16.7656 11.125 16.7656C12.2188 16.7656 13.2305 16.4922 14.1602 15.9453C15.1081 15.3984 15.8555 14.6602 16.4023 13.7305C16.9674 12.8008 17.25 11.7891 17.25 10.6953C17.25 9.89323 17.0859 9.1276 16.7578 8.39844C16.4479 7.65104 16.0013 6.98568 15.418 6.40234ZM11.125 15.7539C10.1953 15.7539 9.33854 15.5169 8.55469 15.043L8.36328 14.9336L6.44922 15.4258L6.96875 13.5664L6.85938 13.375C6.33073 12.5547 6.06641 11.6615 6.06641 10.6953C6.06641 9.78385 6.29427 8.94531 6.75 8.17969C7.20573 7.39583 7.81641 6.77604 8.58203 6.32031C9.36589 5.86458 10.2135 5.63672 11.125 5.63672C11.7995 5.63672 12.4375 5.76432 13.0391 6.01953C13.6589 6.27474 14.2057 6.64844 14.6797 7.14062C15.1719 7.61458 15.5547 8.16146 15.8281 8.78125C16.1016 9.40104 16.2383 10.0391 16.2383 10.6953C16.2383 11.6068 16.0013 12.4544 15.5273 13.2383C15.0716 14.0039 14.4518 14.6146 13.668 15.0703C12.8841 15.526 12.0365 15.7539 11.125 15.7539ZM13.8867 11.9531C13.3398 11.6797 12.9935 11.5156 12.8477 11.4609C12.7747 11.4427 12.7109 11.4336 12.6562 11.4336C12.6016 11.4336 12.556 11.4701 12.5195 11.543C12.4284 11.6706 12.2643 11.8711 12.0273 12.1445C11.9544 12.2357 11.8451 12.2448 11.6992 12.1719C11.1888 11.9167 10.806 11.6888 10.5508 11.4883C10.2044 11.2148 9.90365 10.8411 9.64844 10.3672C9.59375 10.3125 9.57552 10.2669 9.59375 10.2305C9.61198 10.1758 9.65755 10.112 9.73047 10.0391C9.8763 9.89323 9.99479 9.72917 10.0859 9.54688C10.1224 9.47396 10.1133 9.38281 10.0586 9.27344L9.59375 8.15234C9.55729 8.04297 9.51172 7.97917 9.45703 7.96094C9.42057 7.92448 9.36589 7.90625 9.29297 7.90625H8.96484C8.81901 7.90625 8.68229 7.97005 8.55469 8.09766L8.52734 8.125C8.19922 8.47135 8.03516 8.88151 8.03516 9.35547C8.03516 9.82943 8.23568 10.349 8.63672 10.9141L8.69141 10.9688C9.45703 12.0625 10.3047 12.8099 11.2344 13.2109C11.6901 13.4115 12.0547 13.5391 12.3281 13.5938C12.5651 13.6302 12.8112 13.6302 13.0664 13.5938C13.2305 13.5755 13.4219 13.4935 13.6406 13.3477C13.8776 13.1836 14.0234 13.0286 14.0781 12.8828C14.151 12.7188 14.1875 12.5638 14.1875 12.418C14.2057 12.2721 14.2057 12.181 14.1875 12.1445C14.1693 12.1081 14.0964 12.0625 13.9688 12.0078L13.8867 11.9531Z" fill="white"/>
</svg>
